<?xml version="1.0" standalone="no"?>
<!DOCTYPE svg PUBLIC "-//W3C//DTD SVG 20010904//EN"
 "http://www.w3.org/TR/2001/REC-SVG-20010904/DTD/svg10.dtd">
<svg version="1.0" xmlns="http://www.w3.org/2000/svg"
 width="512.000000pt" height="512.000000pt" viewBox="0 0 512.000000 512.000000"
 preserveAspectRatio="xMidYMid meet">

<g transform="translate(0.000000,512.000000) scale(0.100000,-0.100000)"
fill="#000000" stroke="none">
<path d="M754 4630 c-70 -10 -121 -37 -174 -90 -79 -78 -100 -149 -100 -336
l0 -114 -62 -125 -62 -124 -43 -7 c-54 -8 -101 -39 -127 -84 -19 -32 -21 -51
-21 -230 0 -165 3 -200 17 -226 25 -46 75 -84 109 -84 l29 0 0 -1284 0 -1283
-56 -6 c-32 -3 -64 -13 -75 -23 -27 -24 -25 -85 2 -110 21 -19 68 -19 1969
-19 1901 0 1948 0 1969 19 26 24 28 75 4 105 -13 16 -33 24 -75 28 l-58 6 0
398 0 399 79 0 78 0 6 -60 c4 -33 13 -73 22 -89 21 -41 72 -81 104 -81 26 0
27 -1 37 -90 9 -75 16 -98 41 -133 83 -115 250 -131 355 -34 43 40 66 97 74
181 6 70 9 76 29 76 32 0 86 39 109 80 21 34 21 47 21 710 0 663 0 676 -21
710 -23 41 -77 80 -109 80 -20 0 -23 6 -29 73 -9 99 -43 166 -103 206 -89 59
-155 63 -246 14 -83 -46 -127 -129 -127 -240 0 -49 -2 -53 -24 -53 -33 0 -86
-39 -110 -80 -18 -30 -22 -56 -24 -172 l-4 -138 -79 0 -79 0 0 405 0 405 24 0
c33 0 86 39 110 80 19 32 21 51 21 230 0 179 -2 198 -21 230 -26 45 -73 76
-127 84 l-43 7 -62 127 -61 127 -5 140 c-2 77 -10 157 -16 177 -26 89 -115
178 -208 210 -29 10 -340 13 -1422 14 -762 1 -1408 -2 -1436 -6z m2842 -166
c64 -31 79 -64 82 -191 l4 -113 -1521 0 -1521 0 0 109 c0 96 3 112 23 141 12
18 38 41 57 51 33 18 91 19 1438 19 1275 0 1407 -1 1438 -16z m404 -944 l0
-160 -1840 0 -1840 0 0 160 0 160 1840 0 1840 0 0 -160z m617 -582 c19 -18 23
-32 23 -80 l0 -58 -80 0 -80 0 0 58 c0 45 5 63 20 80 28 30 86 30 117 0z
m-3040 -400 l23 -21 0 -419 0 -418 -400 0 -400 0 0 418 c0 407 1 419 20 440
21 22 23 22 377 22 352 0 357 0 380 -22z m1920 0 l23 -21 0 -557 c0 -546 0
-557 -20 -578 l-21 -22 -679 0 c-667 0 -680 0 -700 20 -20 20 -20 33 -20 578
0 548 0 559 20 580 l21 22 676 0 677 0 23 -22z m1068 -56 l230 -58 3 -202 c1
-111 -1 -202 -5 -202 -5 0 -111 27 -238 58 l-230 58 -3 202 c-1 111 1 202 5
202 5 0 112 -27 238 -58z m-405 -562 l0 -320 -80 0 -80 0 0 320 0 320 80 0 80
0 0 -320z m405 -238 l230 -58 3 -132 3 -132 -241 0 -240 0 0 190 c0 105 3 190
8 190 4 0 111 -27 237 -58z m-2965 -602 l0 -440 -400 0 -400 0 0 440 0 440
400 0 400 0 0 -440z m3040 62 c0 -74 -22 -102 -80 -102 -60 0 -80 25 -80 100
l0 60 80 0 80 0 0 -58z"/>
<path d="M2507 2372 c-10 -10 -17 -33 -17 -52 0 -28 14 -47 102 -137 l102
-103 -56 -56 c-50 -51 -57 -55 -78 -44 -27 14 -125 16 -160 2 -51 -20 -108
-71 -129 -116 -42 -86 -23 -202 45 -270 56 -56 163 -83 236 -61 90 29 159 127
159 228 0 31 -5 66 -11 78 -11 20 -7 27 44 78 l56 56 54 -54 c50 -49 54 -56
45 -80 -28 -73 -1 -187 57 -245 56 -56 163 -83 236 -61 52 17 107 65 133 119
61 124 14 262 -109 320 -42 20 -126 23 -170 6 -28 -10 -33 -8 -85 44 l-55 56
102 103 c86 88 102 109 102 136 0 41 -31 71 -72 71 -28 0 -48 -15 -135 -102
l-103 -103 -103 103 c-92 91 -106 102 -138 102 -22 0 -42 -7 -52 -18z m30
-554 c51 -48 15 -138 -56 -138 -47 0 -81 32 -81 79 0 72 84 109 137 59z m640
0 c51 -48 15 -138 -56 -138 -47 0 -81 32 -81 79 0 72 84 109 137 59z"/>
</g>
</svg>
