<svg width="303" height="44" viewBox="0 0 303 44" fill="none" xmlns="http://www.w3.org/2000/svg">
<path fill-rule="evenodd" clip-rule="evenodd" d="M0 22C0 9.84974 9.84974 0 22 0H108C115.275 0 121.726 3.53138 125.731 8.97352C127.005 10.7054 131.995 10.7054 133.269 8.97352C137.274 3.53138 143.725 0 151 0H238C245.275 0 251.726 3.53137 255.731 8.97351C257.005 10.7053 261.995 10.7053 263.269 8.97351C267.274 3.53138 273.725 0 281 0C293.15 0 303 9.84974 303 22C303 34.1503 293.15 44 281 44C273.725 44 267.274 40.4686 263.269 35.0265C261.995 33.2947 257.005 33.2947 255.731 35.0265C251.726 40.4686 245.275 44 238 44H151C143.725 44 137.274 40.4686 133.269 35.0265C131.995 33.2946 127.005 33.2946 125.731 35.0265C121.726 40.4686 115.275 44 108 44H22C9.84973 44 0 34.1503 0 22Z" fill="#131313"/>
</svg>
