<svg width="369" height="508" viewBox="0 0 369 508" fill="none" xmlns="http://www.w3.org/2000/svg">
<path d="M287.557 237.822C287.767 237.821 287.948 237.895 288.1 238.045C288.251 238.195 288.327 238.375 288.328 238.585C288.33 238.795 288.255 238.976 288.106 239.127C287.956 239.279 287.776 239.355 287.566 239.356C287.356 239.357 287.175 239.283 287.023 239.134C286.872 238.984 286.796 238.804 286.794 238.594C286.794 238.454 286.828 238.326 286.899 238.21C286.966 238.093 287.058 237.998 287.174 237.927C287.287 237.858 287.415 237.823 287.557 237.822Z" fill="#F5F5F5" fill-opacity="0.62"/>
<path d="M267.674 225.82C267.884 225.819 268.065 225.893 268.216 226.043C268.368 226.193 268.444 226.373 268.445 226.583C268.446 226.793 268.372 226.974 268.223 227.125C268.073 227.277 267.893 227.353 267.683 227.354C267.472 227.356 267.292 227.281 267.14 227.132C266.989 226.982 266.912 226.802 266.911 226.592C266.91 226.452 266.945 226.324 267.016 226.208C267.083 226.091 267.175 225.996 267.291 225.925C267.404 225.856 267.532 225.821 267.674 225.82Z" fill="#F5F5F5" fill-opacity="0.62"/>
<path d="M299.459 174.146C299.669 174.144 299.85 174.219 300.001 174.368C300.153 174.518 300.229 174.698 300.23 174.908C300.231 175.118 300.157 175.299 300.007 175.451C299.858 175.602 299.678 175.678 299.467 175.68C299.257 175.681 299.076 175.607 298.925 175.457C298.774 175.307 298.697 175.127 298.696 174.917C298.695 174.778 298.73 174.65 298.8 174.533C298.868 174.416 298.96 174.322 299.076 174.25C299.189 174.181 299.317 174.146 299.459 174.146Z" fill="#F5F5F5" fill-opacity="0.62"/>
<path d="M227.665 159.412C227.875 159.411 228.056 159.485 228.207 159.635C228.358 159.784 228.435 159.964 228.436 160.175C228.437 160.385 228.363 160.566 228.213 160.717C228.064 160.868 227.884 160.945 227.673 160.946C227.463 160.947 227.282 160.873 227.131 160.723C226.979 160.574 226.903 160.394 226.902 160.183C226.901 160.044 226.936 159.916 227.006 159.799C227.074 159.682 227.166 159.588 227.282 159.516C227.395 159.448 227.523 159.413 227.665 159.412Z" fill="#F5F5F5" fill-opacity="0.62"/>
<path d="M168.223 159.752C168.433 159.751 168.614 159.825 168.765 159.975C168.917 160.125 168.993 160.305 168.994 160.515C168.996 160.725 168.921 160.906 168.772 161.057C168.622 161.209 168.442 161.285 168.232 161.286C168.022 161.288 167.841 161.213 167.689 161.064C167.538 160.914 167.462 160.734 167.46 160.524C167.46 160.385 167.494 160.257 167.565 160.14C167.632 160.023 167.724 159.929 167.84 159.857C167.953 159.788 168.081 159.753 168.223 159.752Z" fill="#F5F5F5" fill-opacity="0.62"/>
<path d="M128.173 86.2766C128.383 86.2754 128.564 86.3497 128.716 86.4994C128.867 86.6491 128.943 86.829 128.945 87.0393C128.946 87.2495 128.872 87.4303 128.722 87.5817C128.572 87.7332 128.392 87.8095 128.182 87.8107C127.972 87.8119 127.791 87.7376 127.64 87.5879C127.488 87.4382 127.412 87.2583 127.411 87.0481C127.41 86.9089 127.445 86.7808 127.515 86.6639C127.582 86.5471 127.674 86.4528 127.79 86.3811C127.904 86.3123 128.031 86.2774 128.173 86.2766Z" fill="#F5F5F5" fill-opacity="0.62"/>
<path d="M179.036 70.8404C179.247 70.8392 179.427 70.9135 179.579 71.0632C179.73 71.2129 179.807 71.3929 179.808 71.6031C179.809 71.8133 179.735 71.9941 179.585 72.1456C179.435 72.297 179.255 72.3733 179.045 72.3745C178.835 72.3757 178.654 72.3015 178.503 72.1518C178.351 72.0021 178.275 71.8221 178.274 71.6119C178.273 71.4727 178.308 71.3446 178.378 71.2277C178.446 71.1109 178.537 71.0166 178.653 70.9449C178.767 70.8761 178.894 70.8413 179.036 70.8404Z" fill="#F5F5F5" fill-opacity="0.62"/>
<path d="M253.574 70.4136C253.784 70.4124 253.965 70.4866 254.117 70.6363C254.268 70.786 254.344 70.966 254.346 71.1762C254.347 71.3865 254.273 71.5673 254.123 71.7187C253.973 71.8701 253.793 71.9465 253.583 71.9477C253.373 71.9489 253.192 71.8746 253.04 71.7249C252.889 71.5752 252.813 71.3952 252.811 71.185C252.811 71.0458 252.845 70.9178 252.916 70.8009C252.983 70.684 253.075 70.5897 253.191 70.5181C253.304 70.4492 253.432 70.4144 253.574 70.4136Z" fill="#F5F5F5" fill-opacity="0.62"/>
<path d="M262.686 13.8206C262.896 13.8194 263.077 13.8936 263.228 14.0433C263.379 14.193 263.456 14.373 263.457 14.5832C263.458 14.7934 263.384 14.9743 263.234 15.1257C263.085 15.2771 262.905 15.3534 262.694 15.3546C262.484 15.3558 262.303 15.2816 262.152 15.1319C262 14.9822 261.924 14.8022 261.923 14.592C261.922 14.4528 261.957 14.3248 262.027 14.2079C262.095 14.091 262.187 13.9967 262.303 13.925C262.416 13.8562 262.544 13.8214 262.686 13.8206Z" fill="#F5F5F5" fill-opacity="0.18"/>
<path d="M323.261 46.7924C323.472 46.7912 323.652 46.8655 323.804 47.0152C323.955 47.1649 324.032 47.3449 324.033 47.5551C324.034 47.7653 323.96 47.9461 323.81 48.0976C323.66 48.249 323.48 48.3253 323.27 48.3265C323.06 48.3277 322.879 48.2535 322.728 48.1038C322.576 47.954 322.5 47.7741 322.499 47.5639C322.498 47.4247 322.533 47.2966 322.603 47.1797C322.671 47.0629 322.762 46.9686 322.878 46.8969C322.992 46.8281 323.119 46.7933 323.261 46.7924Z" fill="#F5F5F5" fill-opacity="0.18"/>
<path d="M305.265 34.7796C305.476 34.7784 305.656 34.8526 305.808 35.0023C305.959 35.152 306.036 35.332 306.037 35.5422C306.038 35.7524 305.964 35.9332 305.814 36.0847C305.664 36.2361 305.484 36.3124 305.274 36.3136C305.064 36.3148 304.883 36.2406 304.732 36.0909C304.58 35.9412 304.504 35.7612 304.503 35.551C304.502 35.4118 304.537 35.2837 304.607 35.1669C304.675 35.05 304.766 34.9557 304.882 34.884C304.996 34.8152 305.123 34.7804 305.265 34.7796Z" fill="#F5F5F5" fill-opacity="0.18"/>
<path d="M218.664 70.6135C218.874 70.6123 219.055 70.6866 219.206 70.8363C219.358 70.986 219.434 71.1659 219.435 71.3762C219.437 71.5864 219.362 71.7672 219.213 71.9186C219.063 72.0701 218.883 72.1464 218.673 72.1476C218.463 72.1488 218.282 72.0745 218.13 71.9248C217.979 71.7751 217.903 71.5952 217.901 71.3849C217.901 71.2457 217.935 71.1177 218.006 71.0008C218.073 70.8839 218.165 70.7897 218.281 70.718C218.394 70.6491 218.522 70.6143 218.664 70.6135Z" fill="#F5F5F5" fill-opacity="0.18"/>
<path d="M208.998 30.2824C209.208 30.2812 209.389 30.3555 209.54 30.5052C209.692 30.6549 209.768 30.8348 209.769 31.0451C209.77 31.2553 209.696 31.4361 209.547 31.5875C209.397 31.739 209.217 31.8153 209.007 31.8165C208.796 31.8177 208.616 31.7434 208.464 31.5937C208.313 31.444 208.236 31.2641 208.235 31.0539C208.234 30.9147 208.269 30.7866 208.34 30.6697C208.407 30.5529 208.499 30.4586 208.615 30.3869C208.728 30.3181 208.856 30.2832 208.998 30.2824Z" fill="#F5F5F5" fill-opacity="0.18"/>
<path d="M231.596 22.0758C231.806 22.0746 231.987 22.1489 232.138 22.2986C232.29 22.4483 232.366 22.6282 232.367 22.8385C232.368 23.0487 232.294 23.2295 232.145 23.3809C231.995 23.5324 231.815 23.6087 231.605 23.6099C231.394 23.6111 231.214 23.5368 231.062 23.3871C230.911 23.2374 230.834 23.0575 230.833 22.8472C230.832 22.708 230.867 22.58 230.938 22.4631C231.005 22.3463 231.097 22.252 231.213 22.1803C231.326 22.1115 231.454 22.0766 231.596 22.0758Z" fill="#F5F5F5" fill-opacity="0.18"/>
<path d="M155.362 55.8311C155.572 55.8299 155.753 55.9042 155.904 56.0539C156.056 56.2036 156.132 56.3835 156.133 56.5938C156.134 56.804 156.06 56.9848 155.91 57.1363C155.761 57.2877 155.581 57.364 155.371 57.3652C155.16 57.3664 154.979 57.2922 154.828 57.1424C154.677 56.9927 154.6 56.8128 154.599 56.6026C154.598 56.4634 154.633 56.3353 154.703 56.2184C154.771 56.1016 154.863 56.0073 154.979 55.9356C155.092 55.8668 155.22 55.8319 155.362 55.8311Z" fill="#F5F5F5" fill-opacity="0.18"/>
<path d="M347.11 92.0904C347.32 92.0892 347.501 92.1634 347.652 92.3131C347.804 92.4628 347.88 92.6428 347.881 92.853C347.882 93.0632 347.808 93.2441 347.658 93.3955C347.509 93.5469 347.329 93.6232 347.118 93.6244C346.908 93.6256 346.727 93.5514 346.576 93.4017C346.425 93.252 346.348 93.072 346.347 92.8618C346.346 92.7226 346.381 92.5946 346.451 92.4777C346.519 92.3608 346.611 92.2665 346.727 92.1948C346.84 92.126 346.968 92.0912 347.11 92.0904Z" fill="#F5F5F5" fill-opacity="0.18"/>
<path d="M333.171 129.528C333.381 129.526 333.562 129.601 333.713 129.75C333.865 129.9 333.941 130.08 333.942 130.29C333.943 130.5 333.869 130.681 333.719 130.833C333.57 130.984 333.39 131.06 333.18 131.062C332.969 131.063 332.789 130.989 332.637 130.839C332.486 130.689 332.409 130.509 332.408 130.299C332.407 130.16 332.442 130.032 332.513 129.915C332.58 129.798 332.672 129.704 332.788 129.632C332.901 129.563 333.029 129.528 333.171 129.528Z" fill="#F5F5F5" fill-opacity="0.18"/>
<path d="M349.644 205.158C349.855 205.156 350.035 205.231 350.187 205.38C350.338 205.53 350.415 205.71 350.416 205.92C350.417 206.131 350.343 206.311 350.193 206.463C350.043 206.614 349.863 206.691 349.653 206.692C349.443 206.693 349.262 206.619 349.111 206.469C348.959 206.319 348.883 206.139 348.882 205.929C348.881 205.79 348.916 205.662 348.986 205.545C349.054 205.428 349.145 205.334 349.261 205.262C349.375 205.193 349.502 205.158 349.644 205.158Z" fill="#F5F5F5" fill-opacity="0.18"/>
<path d="M271.263 193.491C271.473 193.489 271.654 193.564 271.805 193.713C271.957 193.863 272.033 194.043 272.034 194.253C272.035 194.464 271.961 194.644 271.812 194.796C271.662 194.947 271.482 195.024 271.272 195.025C271.061 195.026 270.881 194.952 270.729 194.802C270.578 194.652 270.501 194.472 270.5 194.262C270.499 194.123 270.534 193.995 270.605 193.878C270.672 193.761 270.764 193.667 270.88 193.595C270.993 193.526 271.121 193.491 271.263 193.491Z" fill="#F5F5F5" fill-opacity="0.18"/>
<path d="M235.485 206.821C235.695 206.82 235.876 206.894 236.027 207.044C236.178 207.194 236.255 207.374 236.256 207.584C236.257 207.794 236.183 207.975 236.033 208.126C235.884 208.278 235.704 208.354 235.493 208.355C235.283 208.356 235.102 208.282 234.951 208.132C234.799 207.983 234.723 207.803 234.722 207.593C234.721 207.453 234.756 207.325 234.826 207.208C234.894 207.092 234.986 206.997 235.102 206.926C235.215 206.857 235.342 206.822 235.485 206.821Z" fill="#F5F5F5" fill-opacity="0.18"/>
<path d="M225.268 235.15C225.478 235.149 225.659 235.223 225.81 235.373C225.962 235.522 226.038 235.702 226.039 235.913C226.04 236.123 225.966 236.304 225.816 236.455C225.667 236.607 225.487 236.683 225.276 236.684C225.066 236.685 224.885 236.611 224.734 236.461C224.582 236.312 224.506 236.132 224.505 235.921C224.504 235.782 224.539 235.654 224.609 235.537C224.677 235.42 224.769 235.326 224.885 235.255C224.998 235.186 225.126 235.151 225.268 235.15Z" fill="#F5F5F5" fill-opacity="0.18"/>
<path d="M213.691 190.791C213.901 190.79 214.082 190.864 214.233 191.014C214.385 191.164 214.461 191.344 214.462 191.554C214.464 191.764 214.389 191.945 214.24 192.096C214.09 192.248 213.91 192.324 213.7 192.325C213.49 192.327 213.309 192.252 213.157 192.103C213.006 191.953 212.93 191.773 212.928 191.563C212.928 191.424 212.962 191.296 213.033 191.179C213.1 191.062 213.192 190.968 213.308 190.896C213.421 190.827 213.549 190.792 213.691 190.791Z" fill="#F5F5F5" fill-opacity="0.18"/>
<path d="M262.575 159.212C262.785 159.211 262.966 159.285 263.117 159.435C263.269 159.584 263.345 159.764 263.346 159.975C263.347 160.185 263.273 160.366 263.123 160.517C262.974 160.669 262.794 160.745 262.583 160.746C262.373 160.747 262.192 160.673 262.041 160.523C261.89 160.374 261.813 160.194 261.812 159.983C261.811 159.844 261.846 159.716 261.916 159.599C261.984 159.482 262.076 159.388 262.192 159.316C262.305 159.248 262.433 159.213 262.575 159.212Z" fill="#F5F5F5" fill-opacity="0.18"/>
<path d="M308.755 149.861C308.965 149.859 309.146 149.934 309.298 150.083C309.449 150.233 309.525 150.413 309.526 150.623C309.528 150.833 309.453 151.014 309.304 151.166C309.154 151.317 308.974 151.393 308.764 151.395C308.554 151.396 308.373 151.322 308.221 151.172C308.07 151.022 307.994 150.842 307.992 150.632C307.992 150.493 308.026 150.365 308.097 150.248C308.164 150.131 308.256 150.037 308.372 149.965C308.485 149.896 308.613 149.861 308.755 149.861Z" fill="#F5F5F5" fill-opacity="0.18"/>
<path d="M326.855 180.047C327.065 180.045 327.246 180.12 327.398 180.269C327.549 180.419 327.625 180.599 327.627 180.809C327.628 181.02 327.554 181.2 327.404 181.352C327.254 181.503 327.074 181.58 326.864 181.581C326.654 181.582 326.473 181.508 326.321 181.358C326.17 181.208 326.094 181.028 326.093 180.818C326.092 180.679 326.126 180.551 326.197 180.434C326.264 180.317 326.356 180.223 326.472 180.151C326.585 180.082 326.713 180.047 326.855 180.047Z" fill="#F5F5F5" fill-opacity="0.18"/>
<path d="M300.859 253.9C301.069 253.899 301.25 253.973 301.401 254.123C301.553 254.273 301.629 254.453 301.63 254.663C301.631 254.873 301.557 255.054 301.407 255.206C301.258 255.357 301.078 255.433 300.868 255.435C300.657 255.436 300.477 255.361 300.325 255.212C300.174 255.062 300.097 254.882 300.096 254.672C300.095 254.533 300.13 254.405 300.201 254.288C300.268 254.171 300.36 254.077 300.476 254.005C300.589 253.936 300.717 253.901 300.859 253.9Z" fill="#F5F5F5" fill-opacity="0.18"/>
<path d="M215.96 257.416C216.17 257.415 216.351 257.489 216.502 257.639C216.654 257.788 216.73 257.968 216.731 258.178C216.732 258.389 216.658 258.57 216.508 258.721C216.359 258.872 216.179 258.949 215.968 258.95C215.758 258.951 215.577 258.877 215.426 258.727C215.275 258.577 215.198 258.397 215.197 258.187C215.196 258.048 215.231 257.92 215.301 257.803C215.369 257.686 215.461 257.592 215.577 257.52C215.69 257.451 215.818 257.417 215.96 257.416Z" fill="#F5F5F5" fill-opacity="0.18"/>
<path d="M130.991 248.815C131.201 248.814 131.382 248.888 131.534 249.038C131.685 249.188 131.761 249.368 131.763 249.578C131.764 249.788 131.69 249.969 131.54 250.12C131.39 250.272 131.21 250.348 131 250.349C130.79 250.351 130.609 250.276 130.457 250.127C130.306 249.977 130.23 249.797 130.228 249.587C130.228 249.448 130.262 249.32 130.333 249.203C130.4 249.086 130.492 248.991 130.608 248.92C130.721 248.851 130.849 248.816 130.991 248.815Z" fill="#F5F5F5" fill-opacity="0.18"/>
<path d="M61.0899 235.081C61.3001 235.079 61.4809 235.154 61.6324 235.303C61.7838 235.453 61.8601 235.633 61.8613 235.843C61.8625 236.053 61.7883 236.234 61.6386 236.386C61.4889 236.537 61.3089 236.613 61.0987 236.615C60.8884 236.616 60.7076 236.542 60.5562 236.392C60.4048 236.242 60.3284 236.062 60.3272 235.852C60.3264 235.713 60.3612 235.585 60.4316 235.468C60.4991 235.351 60.5909 235.257 60.707 235.185C60.8202 235.116 60.9478 235.081 61.0899 235.081Z" fill="#F5F5F5" fill-opacity="0.18"/>
<path d="M27.9281 211.039C28.1383 211.037 28.3191 211.112 28.4706 211.261C28.622 211.411 28.6983 211.591 28.6995 211.801C28.7007 212.012 28.6265 212.192 28.4768 212.344C28.3271 212.495 28.1471 212.572 27.9369 212.573C27.7266 212.574 27.5458 212.5 27.3944 212.35C27.243 212.2 27.1666 212.02 27.1654 211.81C27.1646 211.671 27.1994 211.543 27.2698 211.426C27.3373 211.309 27.4291 211.215 27.5451 211.143C27.6584 211.074 27.786 211.039 27.9281 211.039Z" fill="#F5F5F5" fill-opacity="0.18"/>
<path d="M20.328 201.995C20.5382 201.994 20.719 202.068 20.8705 202.218C21.0219 202.368 21.0982 202.548 21.0994 202.758C21.1006 202.968 21.0264 203.149 20.8767 203.3C20.727 203.452 20.547 203.528 20.3368 203.529C20.1265 203.531 19.9457 203.456 19.7943 203.307C19.6429 203.157 19.5665 202.977 19.5653 202.767C19.5645 202.628 19.5993 202.499 19.6697 202.383C19.7372 202.266 19.829 202.171 19.9451 202.1C20.0583 202.031 20.1859 201.996 20.328 201.995Z" fill="#F5F5F5" fill-opacity="0.18"/>
<path d="M50.4222 184.659C50.6324 184.658 50.8132 184.732 50.9646 184.881C51.1161 185.031 51.1924 185.211 51.1936 185.421C51.1948 185.632 51.1205 185.812 50.9708 185.964C50.8211 186.115 50.6412 186.192 50.4309 186.193C50.2207 186.194 50.0399 186.12 49.8885 185.97C49.737 185.82 49.6607 185.64 49.6595 185.43C49.6587 185.291 49.6935 185.163 49.7639 185.046C49.8314 184.929 49.9232 184.835 50.0392 184.763C50.1525 184.694 50.2801 184.66 50.4222 184.659Z" fill="#F5F5F5" fill-opacity="0.18"/>
<path d="M42.6543 146.336C42.8645 146.335 43.0453 146.409 43.1968 146.559C43.3482 146.709 43.4245 146.889 43.4257 147.099C43.4269 147.309 43.3527 147.49 43.203 147.641C43.0532 147.793 42.8733 147.869 42.6631 147.87C42.4528 147.871 42.272 147.797 42.1206 147.648C41.9692 147.498 41.8928 147.318 41.8916 147.108C41.8908 146.968 41.9256 146.84 41.996 146.724C42.0635 146.607 42.1553 146.512 42.2713 146.441C42.3846 146.372 42.5122 146.337 42.6543 146.336Z" fill="#F5F5F5" fill-opacity="0.18"/>
<path d="M84.0938 132.973C84.304 132.972 84.4848 133.046 84.6363 133.196C84.7877 133.346 84.864 133.526 84.8652 133.736C84.8664 133.946 84.7922 134.127 84.6425 134.278C84.4928 134.43 84.3128 134.506 84.1026 134.507C83.8924 134.509 83.7115 134.434 83.5601 134.285C83.4087 134.135 83.3324 133.955 83.3312 133.745C83.3304 133.606 83.3651 133.477 83.4355 133.361C83.503 133.244 83.5948 133.149 83.7109 133.078C83.8241 133.009 83.9517 132.974 84.0938 132.973Z" fill="#F5F5F5" fill-opacity="0.18"/>
<path d="M80.233 117.851C80.4432 117.849 80.6241 117.924 80.7755 118.073C80.9269 118.223 81.0032 118.403 81.0044 118.613C81.0056 118.823 80.9314 119.004 80.7817 119.156C80.632 119.307 80.452 119.383 80.2418 119.385C80.0316 119.386 79.8507 119.312 79.6993 119.162C79.5479 119.012 79.4716 118.832 79.4704 118.622C79.4696 118.483 79.5044 118.355 79.5747 118.238C79.6422 118.121 79.734 118.027 79.8501 117.955C79.9633 117.886 80.091 117.851 80.233 117.851Z" fill="#F5F5F5" fill-opacity="0.18"/>
<path d="M131.154 112.511C131.364 112.509 131.545 112.584 131.697 112.733C131.848 112.883 131.924 113.063 131.926 113.273C131.927 113.484 131.852 113.664 131.703 113.816C131.553 113.967 131.373 114.044 131.163 114.045C130.953 114.046 130.772 113.972 130.62 113.822C130.469 113.672 130.393 113.492 130.391 113.282C130.391 113.143 130.425 113.015 130.496 112.898C130.563 112.781 130.655 112.687 130.771 112.615C130.884 112.546 131.012 112.512 131.154 112.511Z" fill="#F5F5F5" fill-opacity="0.18"/>
<path d="M63.0589 84.6303C63.2692 84.6291 63.45 84.7033 63.6014 84.853C63.7528 85.0027 63.8292 85.1827 63.8304 85.3929C63.8316 85.6031 63.7573 85.784 63.6076 85.9354C63.4579 86.0868 63.2779 86.1631 63.0677 86.1643C62.8575 86.1655 62.6767 86.0913 62.5252 85.9416C62.3738 85.7919 62.2975 85.6119 62.2963 85.4017C62.2955 85.2625 62.3303 85.1344 62.4006 85.0176C62.4681 84.9007 62.5599 84.8064 62.676 84.7347C62.7893 84.6659 62.9169 84.6311 63.0589 84.6303Z" fill="#F5F5F5" fill-opacity="0.18"/>
<path d="M57.1434 40.2391C57.3536 40.2379 57.5344 40.3121 57.6858 40.4618C57.8373 40.6115 57.9136 40.7915 57.9148 41.0017C57.916 41.212 57.8417 41.3928 57.692 41.5442C57.5423 41.6956 57.3624 41.772 57.1521 41.7732C56.9419 41.7744 56.7611 41.7001 56.6097 41.5504C56.4582 41.4007 56.3819 41.2207 56.3807 41.0105C56.3799 40.8713 56.4147 40.7433 56.485 40.6264C56.5526 40.5095 56.6444 40.4152 56.7604 40.3436C56.8737 40.2747 57.0013 40.2399 57.1434 40.2391Z" fill="#F5F5F5" fill-opacity="0.18"/>
<path d="M87.1799 12.8064C87.3901 12.8051 87.571 12.8794 87.7224 13.0291C87.8738 13.1788 87.9501 13.3588 87.9513 13.569C87.9525 13.7792 87.8783 13.96 87.7286 14.1115C87.5789 14.2629 87.3989 14.3392 87.1887 14.3404C86.9785 14.3416 86.7976 14.2674 86.6462 14.1177C86.4948 13.968 86.4185 13.788 86.4173 13.5778C86.4165 13.4386 86.4513 13.3105 86.5216 13.1937C86.5891 13.0768 86.6809 12.9825 86.797 12.9108C86.9102 12.842 87.0379 12.8072 87.1799 12.8064Z" fill="#F5F5F5" fill-opacity="0.18"/>
<path d="M130.564 9.52883C130.775 9.52762 130.955 9.60187 131.107 9.75158C131.258 9.90128 131.335 10.0812 131.336 10.2915C131.337 10.5017 131.263 10.6825 131.113 10.8339C130.963 10.9854 130.783 11.0617 130.573 11.0629C130.363 11.0641 130.182 10.9898 130.031 10.8401C129.879 10.6904 129.803 10.5105 129.802 10.3003C129.801 10.161 129.836 10.033 129.906 9.91612C129.974 9.79926 130.065 9.70498 130.181 9.63329C130.295 9.56446 130.422 9.52964 130.564 9.52883Z" fill="#F5F5F5" fill-opacity="0.18"/>
<path d="M165.469 8.31935C165.679 8.31815 165.86 8.3924 166.011 8.5421C166.163 8.69181 166.239 8.87177 166.24 9.08199C166.241 9.29222 166.167 9.47304 166.017 9.62447C165.868 9.7759 165.688 9.85222 165.477 9.85342C165.267 9.85462 165.086 9.78037 164.935 9.63067C164.783 9.48097 164.707 9.301 164.706 9.09078C164.705 8.95158 164.74 8.82353 164.81 8.70665C164.878 8.58979 164.97 8.49551 165.086 8.42382C165.199 8.35499 165.327 8.32017 165.469 8.31935Z" fill="#F5F5F5" fill-opacity="0.18"/>
<path d="M171.332 43.6239C171.542 43.6227 171.723 43.6969 171.875 43.8466C172.026 43.9963 172.102 44.1763 172.104 44.3865C172.105 44.5967 172.031 44.7775 171.881 44.929C171.731 45.0804 171.551 45.1567 171.341 45.1579C171.131 45.1591 170.95 45.0849 170.799 44.9352C170.647 44.7855 170.571 44.6055 170.57 44.3953C170.569 44.2561 170.604 44.128 170.674 44.0112C170.741 43.8943 170.833 43.8 170.949 43.7283C171.063 43.6595 171.19 43.6247 171.332 43.6239Z" fill="#F5F5F5" fill-opacity="0.18"/>
<path d="M22.3316 57.6026C22.5418 57.6014 22.7226 57.6757 22.8741 57.8254C23.0255 57.9751 23.1018 58.155 23.103 58.3653C23.1042 58.5755 23.03 58.7563 22.8803 58.9077C22.7306 59.0592 22.5506 59.1355 22.3404 59.1367C22.1301 59.1379 21.9493 59.0636 21.7979 58.9139C21.6465 58.7642 21.5701 58.5843 21.5689 58.374C21.5681 58.2348 21.6029 58.1068 21.6733 57.9899C21.7408 57.8731 21.8326 57.7788 21.9487 57.7071C22.0619 57.6383 22.1895 57.6034 22.3316 57.6026Z" fill="#F5F5F5" fill-opacity="0.18"/>
<path d="M10.3145 101.087C10.5247 101.086 10.7055 101.16 10.857 101.31C11.0084 101.459 11.0847 101.639 11.0859 101.849C11.0871 102.06 11.0129 102.24 10.8632 102.392C10.7135 102.543 10.5335 102.62 10.3233 102.621C10.1131 102.622 9.93223 102.548 9.7808 102.398C9.62937 102.248 9.55306 102.068 9.55185 101.858C9.55106 101.719 9.58584 101.591 9.65619 101.474C9.7237 101.357 9.81549 101.263 9.93156 101.191C10.0448 101.122 10.1725 101.088 10.3145 101.087Z" fill="#F5F5F5" fill-opacity="0.18"/>
<path d="M4.75749 119.292C4.96771 119.291 5.14854 119.366 5.29997 119.515C5.45139 119.665 5.52771 119.845 5.52891 120.055C5.53012 120.265 5.45587 120.446 5.30616 120.598C5.15646 120.749 4.9765 120.825 4.76627 120.827C4.55605 120.828 4.37522 120.753 4.22379 120.604C4.07237 120.454 3.99605 120.274 3.99485 120.064C3.99405 119.925 4.02883 119.797 4.09918 119.68C4.1667 119.563 4.25849 119.469 4.37456 119.397C4.4878 119.328 4.61544 119.293 4.75749 119.292Z" fill="#F5F5F5" fill-opacity="0.18"/>
<path d="M17.1042 133.357C17.3144 133.356 17.4952 133.43 17.6466 133.58C17.7981 133.729 17.8744 133.909 17.8756 134.12C17.8768 134.33 17.8025 134.511 17.6528 134.662C17.5031 134.813 17.3232 134.89 17.113 134.891C16.9027 134.892 16.7219 134.818 16.5705 134.668C16.419 134.519 16.3427 134.339 16.3415 134.128C16.3407 133.989 16.3755 133.861 16.4459 133.744C16.5134 133.627 16.6052 133.533 16.7212 133.461C16.8345 133.393 16.9621 133.358 17.1042 133.357Z" fill="#F5F5F5" fill-opacity="0.18"/>
<path d="M245.14 80.5585C245.351 80.5573 245.531 80.6315 245.683 80.7812C245.834 80.9309 245.911 81.1109 245.912 81.3211C245.913 81.5313 245.839 81.7121 245.689 81.8636C245.539 82.015 245.359 82.0913 245.149 82.0925C244.939 82.0937 244.758 82.0195 244.607 81.8698C244.455 81.7201 244.379 81.5401 244.378 81.3299C244.377 81.1907 244.412 81.0626 244.482 80.9458C244.55 80.8289 244.641 80.7346 244.757 80.6629C244.871 80.5941 244.998 80.5593 245.14 80.5585Z" fill="#F5F5F5" fill-opacity="0.62"/>
<path d="M234.512 36.382C234.633 36.2102 234.795 36.11 234.999 36.0815C235.203 36.053 235.387 36.1047 235.55 36.2368C235.714 36.3688 235.811 36.5437 235.841 36.7613C235.872 36.979 235.827 37.1737 235.705 37.3456C235.584 37.5174 235.422 37.6176 235.218 37.6461C235.014 37.6746 234.83 37.6229 234.667 37.4908C234.558 37.4034 234.479 37.2941 234.43 37.1628C234.378 37.0339 234.359 36.8996 234.37 36.7598C234.383 36.624 234.43 36.4981 234.512 36.382Z" fill="#F5F5F5" fill-opacity="0.62"/>
<path d="M184.466 30.423C184.676 30.4218 184.857 30.496 185.009 30.6457C185.16 30.7954 185.236 30.9754 185.238 31.1856C185.239 31.3959 185.165 31.5767 185.015 31.7281C184.865 31.8795 184.685 31.9559 184.475 31.9571C184.265 31.9583 184.084 31.884 183.933 31.7343C183.781 31.5846 183.705 31.4046 183.704 31.1944C183.703 31.0552 183.738 30.9272 183.808 30.8103C183.875 30.6934 183.967 30.5991 184.083 30.5275C184.197 30.4586 184.324 30.4238 184.466 30.423Z" fill="#F5F5F5" fill-opacity="0.62"/>
<path d="M203.198 6.08394C203.408 6.08274 203.589 6.15699 203.74 6.30669C203.892 6.45639 203.968 6.63636 203.969 6.84658C203.97 7.0568 203.896 7.23763 203.747 7.38906C203.597 7.54049 203.417 7.6168 203.207 7.61801C202.996 7.61921 202.816 7.54496 202.664 7.39526C202.513 7.24555 202.436 7.06559 202.435 6.85537C202.434 6.71616 202.469 6.58812 202.54 6.47124C202.607 6.35437 202.699 6.2601 202.815 6.18841C202.928 6.11958 203.056 6.08475 203.198 6.08394Z" fill="#F5F5F5" fill-opacity="0.62"/>
<path d="M310.788 10.5161C310.998 10.5149 311.179 10.5892 311.33 10.7389C311.482 10.8886 311.558 11.0685 311.559 11.2788C311.56 11.489 311.486 11.6698 311.336 11.8212C311.187 11.9727 311.007 12.049 310.796 12.0502C310.586 12.0514 310.405 11.9772 310.254 11.8274C310.103 11.6777 310.026 11.4978 310.025 11.2876C310.024 11.1484 310.059 11.0203 310.129 10.9034C310.197 10.7866 310.289 10.6923 310.405 10.6206C310.518 10.5518 310.646 10.5169 310.788 10.5161Z" fill="#F5F5F5" fill-opacity="0.62"/>
<path d="M285.376 21.7678C285.587 21.7666 285.767 21.8408 285.919 21.9905C286.07 22.1402 286.147 22.3202 286.148 22.5304C286.149 22.7406 286.075 22.9215 285.925 23.0729C285.775 23.2243 285.595 23.3006 285.385 23.3018C285.175 23.303 284.994 23.2288 284.843 23.0791C284.691 22.9294 284.615 22.7494 284.614 22.5392C284.613 22.4 284.648 22.272 284.718 22.1551C284.786 22.0382 284.877 21.9439 284.993 21.8722C285.107 21.8034 285.234 21.7686 285.376 21.7678Z" fill="#F5F5F5" fill-opacity="0.62"/>
<path d="M245.679 9.87935C245.889 9.87815 246.07 9.9524 246.222 10.1021C246.373 10.2518 246.449 10.4318 246.451 10.642C246.452 10.8522 246.377 11.033 246.228 11.1845C246.078 11.3359 245.898 11.4122 245.688 11.4134C245.478 11.4146 245.297 11.3404 245.145 11.1907C244.994 11.041 244.918 10.861 244.916 10.6508C244.916 10.5116 244.95 10.3835 245.021 10.2666C245.088 10.1498 245.18 10.0555 245.296 9.98382C245.409 9.91499 245.537 9.88016 245.679 9.87935Z" fill="#F5F5F5" fill-opacity="0.62"/>
<path d="M128.839 37.8092C129.049 37.808 129.23 37.8822 129.382 38.0319C129.533 38.1816 129.609 38.3616 129.611 38.5718C129.612 38.782 129.538 38.9629 129.388 39.1143C129.238 39.2657 129.058 39.342 128.848 39.3432C128.638 39.3444 128.457 39.2702 128.306 39.1205C128.154 38.9708 128.078 38.7908 128.077 38.5806C128.076 38.4414 128.111 38.3133 128.181 38.1965C128.248 38.0796 128.34 37.9853 128.456 37.9136C128.57 37.8448 128.697 37.81 128.839 37.8092Z" fill="#F5F5F5" fill-opacity="0.62"/>
<path d="M111.769 22.7621C111.979 22.7609 112.16 22.8351 112.312 22.9849C112.463 23.1346 112.539 23.3145 112.541 23.5247C112.542 23.735 112.468 23.9158 112.318 24.0672C112.168 24.2186 111.988 24.295 111.778 24.2962C111.568 24.2974 111.387 24.2231 111.235 24.0734C111.084 23.9237 111.008 23.7438 111.007 23.5335C111.006 23.3943 111.04 23.2663 111.111 23.1494C111.178 23.0325 111.27 22.9383 111.386 22.8666C111.499 22.7977 111.627 22.7629 111.769 22.7621Z" fill="#F5F5F5" fill-opacity="0.62"/>
<path d="M88.4299 66.3111C88.6401 66.3099 88.821 66.3841 88.9724 66.5338C89.1238 66.6835 89.2001 66.8635 89.2013 67.0737C89.2025 67.2839 89.1283 67.4648 88.9786 67.6162C88.8289 67.7676 88.6489 67.8439 88.4387 67.8451C88.2285 67.8464 88.0476 67.7721 87.8962 67.6224C87.7448 67.4727 87.6685 67.2927 87.6673 67.0825C87.6665 66.9433 87.7013 66.8153 87.7716 66.6984C87.8391 66.5815 87.9309 66.4872 88.047 66.4156C88.1602 66.3467 88.2879 66.3119 88.4299 66.3111Z" fill="#F5F5F5" fill-opacity="0.62"/>
<path d="M45.294 113.002C45.5043 113.001 45.6851 113.075 45.8365 113.225C45.988 113.375 46.0643 113.555 46.0655 113.765C46.0667 113.975 45.9924 114.156 45.8427 114.307C45.693 114.459 45.5131 114.535 45.3028 114.536C45.0926 114.538 44.9118 114.463 44.7604 114.314C44.6089 114.164 44.5326 113.984 44.5314 113.774C44.5306 113.635 44.5654 113.507 44.6357 113.39C44.7033 113.273 44.795 113.179 44.9111 113.107C45.0244 113.038 45.152 113.003 45.294 113.002Z" fill="#F5F5F5" fill-opacity="0.62"/>
<path d="M98.5144 161.241C98.7247 161.239 98.9055 161.314 99.0569 161.463C99.2084 161.613 99.2847 161.793 99.2859 162.003C99.2871 162.213 99.2128 162.394 99.0631 162.546C98.9134 162.697 98.7335 162.773 98.5232 162.775C98.313 162.776 98.1322 162.702 97.9808 162.552C97.8293 162.402 97.753 162.222 97.7518 162.012C97.751 161.873 97.7858 161.745 97.8561 161.628C97.9237 161.511 98.0154 161.417 98.1315 161.345C98.2448 161.276 98.3724 161.241 98.5144 161.241Z" fill="#F5F5F5" fill-opacity="0.62"/>
<path d="M177.786 201.58C177.996 201.578 178.177 201.653 178.329 201.802C178.48 201.952 178.556 202.132 178.558 202.342C178.559 202.552 178.484 202.733 178.335 202.885C178.185 203.036 178.005 203.112 177.795 203.114C177.585 203.115 177.404 203.041 177.252 202.891C177.101 202.741 177.025 202.561 177.023 202.351C177.023 202.212 177.057 202.084 177.128 201.967C177.195 201.85 177.287 201.756 177.403 201.684C177.516 201.615 177.644 201.58 177.786 201.58Z" fill="#F5F5F5" fill-opacity="0.62"/>
<path d="M138.155 194.51C138.365 194.509 138.546 194.583 138.698 194.733C138.849 194.883 138.925 195.063 138.926 195.273C138.928 195.483 138.853 195.664 138.704 195.815C138.554 195.967 138.374 196.043 138.164 196.044C137.954 196.046 137.773 195.971 137.621 195.822C137.47 195.672 137.394 195.492 137.392 195.282C137.392 195.142 137.426 195.014 137.497 194.898C137.564 194.781 137.656 194.686 137.772 194.615C137.885 194.546 138.013 194.511 138.155 194.51Z" fill="#F5F5F5" fill-opacity="0.62"/>
<path d="M94.0205 218.737C94.2307 218.736 94.4115 218.81 94.563 218.96C94.7144 219.11 94.7907 219.29 94.7919 219.5C94.7931 219.71 94.7189 219.891 94.5692 220.043C94.4195 220.194 94.2395 220.27 94.0293 220.272C93.819 220.273 93.6382 220.198 93.4868 220.049C93.3354 219.899 93.2591 219.719 93.2578 219.509C93.2571 219.37 93.2918 219.242 93.3622 219.125C93.4297 219.008 93.5215 218.914 93.6376 218.842C93.7508 218.773 93.8784 218.738 94.0205 218.737Z" fill="#F5F5F5" fill-opacity="0.62"/>
<path d="M49.6058 206.876C49.816 206.875 49.9968 206.949 50.1482 207.099C50.2997 207.248 50.376 207.428 50.3772 207.639C50.3784 207.849 50.3041 208.03 50.1544 208.181C50.0047 208.332 49.8248 208.409 49.6145 208.41C49.4043 208.411 49.2235 208.337 49.0721 208.187C48.9206 208.038 48.8443 207.858 48.8431 207.647C48.8423 207.508 48.8771 207.38 48.9474 207.263C49.015 207.146 49.1068 207.052 49.2228 206.98C49.3361 206.912 49.4637 206.877 49.6058 206.876Z" fill="#F5F5F5" fill-opacity="0.62"/>
<path d="M298.185 116.602C298.396 116.601 298.577 116.675 298.728 116.825C298.879 116.975 298.956 117.155 298.957 117.365C298.958 117.575 298.884 117.756 298.734 117.907C298.584 118.059 298.404 118.135 298.194 118.136C297.984 118.138 297.803 118.063 297.652 117.914C297.5 117.764 297.424 117.584 297.423 117.374C297.422 117.235 297.457 117.107 297.527 116.99C297.595 116.873 297.686 116.779 297.803 116.707C297.916 116.638 298.043 116.603 298.185 116.602Z" fill="#F5F5F5" fill-opacity="0.62"/>
<path d="M310.185 70.0894C310.395 70.0882 310.576 70.1624 310.728 70.3121C310.879 70.4618 310.955 70.6418 310.957 70.852C310.958 71.0622 310.883 71.2431 310.734 71.3945C310.584 71.5459 310.404 71.6222 310.194 71.6234C309.984 71.6246 309.803 71.5504 309.651 71.4007C309.5 71.251 309.424 71.071 309.422 70.8608C309.422 70.7216 309.456 70.5936 309.527 70.4767C309.594 70.3598 309.686 70.2655 309.802 70.1938C309.915 70.125 310.043 70.0902 310.185 70.0894Z" fill="#F5F5F5" fill-opacity="0.62"/>
<path d="M284.56 43.985C284.77 43.9838 284.951 44.058 285.102 44.2078C285.254 44.3575 285.33 44.5374 285.331 44.7476C285.333 44.9579 285.258 45.1387 285.109 45.2901C284.959 45.4415 284.779 45.5179 284.569 45.5191C284.359 45.5203 284.178 45.446 284.026 45.2963C283.875 45.1466 283.799 44.9667 283.797 44.7564C283.797 44.6172 283.831 44.4892 283.902 44.3723C283.969 44.2554 284.061 44.1612 284.177 44.0895C284.29 44.0206 284.418 43.9858 284.56 43.985Z" fill="#F5F5F5" fill-opacity="0.62"/>
<path d="M337.27 21.4705C337.48 21.4693 337.661 21.5436 337.812 21.6933C337.964 21.843 338.04 22.023 338.041 22.2332C338.042 22.4434 337.968 22.6242 337.818 22.7757C337.669 22.9271 337.489 23.0034 337.278 23.0046C337.068 23.0058 336.887 22.9316 336.736 22.7819C336.585 22.6322 336.508 22.4522 336.507 22.242C336.506 22.1028 336.541 21.9747 336.611 21.8578C336.679 21.741 336.771 21.6467 336.887 21.575C337 21.5062 337.128 21.4714 337.27 21.4705Z" fill="#F5F5F5" fill-opacity="0.62"/>
<path d="M341.107 32.5549C341.318 32.5537 341.499 32.628 341.65 32.7777C341.801 32.9274 341.878 33.1074 341.879 33.3176C341.88 33.5278 341.806 33.7086 341.656 33.8601C341.506 34.0115 341.326 34.0878 341.116 34.089C340.906 34.0902 340.725 34.016 340.574 33.8663C340.422 33.7166 340.346 33.5366 340.345 33.3264C340.344 33.1872 340.379 33.0591 340.449 32.9422C340.517 32.8254 340.608 32.7311 340.725 32.6594C340.838 32.5906 340.965 32.5558 341.107 32.5549Z" fill="#F5F5F5" fill-opacity="0.62"/>
<path d="M349.801 67.8432C350.011 67.842 350.192 67.9162 350.344 68.0659C350.495 68.2156 350.571 68.3956 350.573 68.6058C350.574 68.8161 350.5 68.9969 350.35 69.1483C350.2 69.2997 350.02 69.376 349.81 69.3773C349.6 69.3785 349.419 69.3042 349.267 69.1545C349.116 69.0048 349.04 68.8248 349.039 68.6146C349.038 68.4754 349.073 68.3474 349.143 68.2305C349.21 68.1136 349.302 68.0193 349.418 67.9477C349.532 67.8788 349.659 67.844 349.801 67.8432Z" fill="#F5F5F5" fill-opacity="0.62"/>
<path d="M350.067 114.286C350.278 114.285 350.458 114.359 350.61 114.509C350.761 114.658 350.838 114.838 350.839 115.049C350.84 115.259 350.766 115.44 350.616 115.591C350.466 115.743 350.286 115.819 350.076 115.82C349.866 115.821 349.685 115.747 349.534 115.597C349.382 115.448 349.306 115.268 349.305 115.057C349.304 114.918 349.339 114.79 349.409 114.673C349.477 114.556 349.568 114.462 349.684 114.39C349.798 114.322 349.925 114.287 350.067 114.286Z" fill="#F5F5F5" fill-opacity="0.62"/>
<path d="M349.378 158.715C349.589 158.714 349.769 158.788 349.921 158.938C350.072 159.087 350.149 159.267 350.15 159.478C350.151 159.688 350.077 159.869 349.927 160.02C349.777 160.171 349.597 160.248 349.387 160.249C349.177 160.25 348.996 160.176 348.845 160.026C348.693 159.877 348.617 159.697 348.616 159.486C348.615 159.347 348.65 159.219 348.72 159.102C348.788 158.985 348.879 158.891 348.995 158.819C349.109 158.751 349.236 158.716 349.378 158.715Z" fill="#F5F5F5" fill-opacity="0.62"/>
<path d="M242.564 124.998C242.775 124.997 242.955 125.071 243.107 125.221C243.258 125.371 243.335 125.551 243.336 125.761C243.337 125.971 243.263 126.152 243.113 126.303C242.963 126.455 242.783 126.531 242.573 126.532C242.363 126.533 242.182 126.459 242.031 126.31C241.879 126.16 241.803 125.98 241.802 125.77C241.801 125.63 241.836 125.502 241.906 125.386C241.974 125.269 242.065 125.174 242.181 125.103C242.295 125.034 242.422 124.999 242.564 124.998Z" fill="#F5F5F5" fill-opacity="0.62"/>
<path d="M42.9502 33.2527C43.1605 33.2515 43.3413 33.3257 43.4927 33.4755C43.6441 33.6252 43.7205 33.8051 43.7217 34.0153C43.7229 34.2256 43.6486 34.4064 43.4989 34.5578C43.3492 34.7092 43.1692 34.7856 42.959 34.7868C42.7488 34.788 42.568 34.7137 42.4165 34.564C42.2651 34.4143 42.1888 34.2344 42.1876 34.0241C42.1868 33.8849 42.2216 33.7569 42.2919 33.64C42.3594 33.5231 42.4512 33.4289 42.5673 33.3572C42.6805 33.2883 42.8082 33.2535 42.9502 33.2527Z" fill="#F5F5F5" fill-opacity="0.62"/>
<path d="M76.9226 34.0678C77.1328 34.0666 77.3136 34.1409 77.4651 34.2906C77.6165 34.4403 77.6928 34.6202 77.694 34.8305C77.6952 35.0407 77.621 35.2215 77.4713 35.3729C77.3216 35.5244 77.1416 35.6007 76.9314 35.6019C76.7211 35.6031 76.5403 35.5288 76.3889 35.3791C76.2375 35.2294 76.1612 35.0495 76.1599 34.8393C76.1592 34.7001 76.1939 34.572 76.2643 34.4551C76.3318 34.3383 76.4236 34.244 76.5397 34.1723C76.6529 34.1035 76.7805 34.0686 76.9226 34.0678Z" fill="#F5F5F5" fill-opacity="0.62"/>
<path d="M43.7954 16.0837C44.0056 16.0825 44.1864 16.1567 44.3379 16.3064C44.4893 16.4561 44.5656 16.6361 44.5668 16.8463C44.568 17.0566 44.4938 17.2374 44.3441 17.3888C44.1944 17.5402 44.0144 17.6166 43.8042 17.6178C43.594 17.619 43.4131 17.5447 43.2617 17.395C43.1103 17.2453 43.034 17.0653 43.0327 16.8551C43.032 16.7159 43.0667 16.5879 43.1371 16.471C43.2046 16.3541 43.2964 16.2599 43.4125 16.1882C43.5257 16.1193 43.6533 16.0845 43.7954 16.0837Z" fill="#F5F5F5" fill-opacity="0.62"/>
<path d="M23.3908 77.7898C23.601 77.7885 23.7818 77.8628 23.9333 78.0125C24.0847 78.1622 24.161 78.3422 24.1622 78.5524C24.1634 78.7626 24.0892 78.9434 23.9395 79.0949C23.7898 79.2463 23.6098 79.3226 23.3996 79.3238C23.1893 79.325 23.0085 79.2508 22.8571 79.1011C22.7057 78.9514 22.6294 78.7714 22.6281 78.5612C22.6274 78.422 22.6621 78.2939 22.7325 78.1771C22.8 78.0602 22.8918 77.9659 23.0079 77.8942C23.1211 77.8254 23.2487 77.7906 23.3908 77.7898Z" fill="#F5F5F5" fill-opacity="0.62"/>
<path d="M10.6845 165.703C10.8947 165.702 11.0755 165.776 11.227 165.926C11.3784 166.075 11.4547 166.255 11.4559 166.465C11.4571 166.676 11.3829 166.857 11.2332 167.008C11.0835 167.159 10.9035 167.236 10.6933 167.237C10.4831 167.238 10.3022 167.164 10.1508 167.014C9.99937 166.864 9.92305 166.684 9.92185 166.474C9.92105 166.335 9.95583 166.207 10.0262 166.09C10.0937 165.973 10.1855 165.879 10.3016 165.807C10.4148 165.738 10.5424 165.704 10.6845 165.703Z" fill="#F5F5F5" fill-opacity="0.62"/>
<path d="M10.2325 251.526C10.4427 251.525 10.6236 251.599 10.775 251.749C10.9264 251.898 11.0027 252.078 11.0039 252.289C11.0052 252.499 10.9309 252.68 10.7812 252.831C10.6315 252.983 10.4515 253.059 10.2413 253.06C10.0311 253.061 9.85026 252.987 9.69883 252.837C9.5474 252.688 9.47109 252.508 9.46988 252.297C9.46909 252.158 9.50387 252.03 9.57422 251.913C9.64173 251.796 9.73352 251.702 9.84959 251.63C9.96284 251.562 10.0905 251.527 10.2325 251.526Z" fill="#F5F5F5" fill-opacity="0.62"/>
<path d="M107.983 250.93C108.193 250.929 108.374 251.003 108.525 251.152C108.676 251.302 108.753 251.482 108.754 251.692C108.755 251.903 108.681 252.083 108.531 252.235C108.381 252.386 108.202 252.463 107.991 252.464C107.781 252.465 107.6 252.391 107.449 252.241C107.297 252.091 107.221 251.911 107.22 251.701C107.219 251.562 107.254 251.434 107.324 251.317C107.392 251.2 107.484 251.106 107.6 251.034C107.713 250.965 107.84 250.931 107.983 250.93Z" fill="#F5F5F5" fill-opacity="0.62"/>
<path d="M188.488 238.39C188.698 238.388 188.879 238.463 189.03 238.612C189.182 238.762 189.258 238.942 189.259 239.152C189.26 239.362 189.186 239.543 189.037 239.695C188.887 239.846 188.707 239.922 188.497 239.924C188.286 239.925 188.106 239.851 187.954 239.701C187.803 239.551 187.726 239.371 187.725 239.161C187.724 239.022 187.759 238.894 187.83 238.777C187.897 238.66 187.989 238.566 188.105 238.494C188.218 238.425 188.346 238.39 188.488 238.39Z" fill="#F5F5F5" fill-opacity="0.62"/>
<path d="M190.711 132.363C190.922 132.362 191.102 132.436 191.254 132.585C191.405 132.735 191.482 132.915 191.483 133.125C191.484 133.336 191.41 133.516 191.26 133.668C191.11 133.819 190.93 133.896 190.72 133.897C190.51 133.898 190.329 133.824 190.178 133.674C190.026 133.524 189.95 133.344 189.949 133.134C189.948 132.995 189.983 132.867 190.053 132.75C190.12 132.633 190.212 132.539 190.328 132.467C190.442 132.398 190.569 132.364 190.711 132.363Z" fill="#F5F5F5" fill-opacity="0.62"/>
<path d="M173.653 119.335C173.863 119.334 174.044 119.408 174.195 119.558C174.347 119.707 174.423 119.887 174.424 120.098C174.425 120.308 174.351 120.489 174.201 120.64C174.052 120.791 173.872 120.868 173.662 120.869C173.451 120.87 173.271 120.796 173.119 120.646C172.968 120.496 172.891 120.317 172.89 120.106C172.889 119.967 172.924 119.839 172.995 119.722C173.062 119.605 173.154 119.511 173.27 119.439C173.383 119.371 173.511 119.336 173.653 119.335Z" fill="#F5F5F5" fill-opacity="0.62"/>
<path d="M357.464 252.567C357.674 252.565 357.855 252.64 358.007 252.789C358.158 252.939 358.234 253.119 358.235 253.329C358.237 253.539 358.162 253.72 358.013 253.872C357.863 254.023 357.683 254.099 357.473 254.101C357.263 254.102 357.082 254.028 356.93 253.878C356.779 253.728 356.703 253.548 356.701 253.338C356.701 253.199 356.735 253.071 356.806 252.954C356.873 252.837 356.965 252.743 357.081 252.671C357.194 252.602 357.322 252.567 357.464 252.567Z" fill="#F5F5F5" fill-opacity="0.62"/>
<path d="M342.281 237.509C342.491 237.508 342.672 237.582 342.824 237.732C342.975 237.881 343.051 238.061 343.053 238.271C343.054 238.482 342.98 238.663 342.83 238.814C342.68 238.965 342.5 239.042 342.29 239.043C342.08 239.044 341.899 238.97 341.747 238.82C341.596 238.67 341.52 238.49 341.519 238.28C341.518 238.141 341.553 238.013 341.623 237.896C341.69 237.779 341.782 237.685 341.898 237.613C342.011 237.544 342.139 237.51 342.281 237.509Z" fill="#F5F5F5" fill-opacity="0.62"/>
<path d="M308.158 210.444C308.369 210.442 308.549 210.517 308.701 210.666C308.852 210.816 308.929 210.996 308.93 211.206C308.931 211.416 308.857 211.597 308.707 211.749C308.557 211.9 308.377 211.976 308.167 211.978C307.957 211.979 307.776 211.905 307.625 211.755C307.473 211.605 307.397 211.425 307.396 211.215C307.395 211.076 307.43 210.948 307.5 210.831C307.568 210.714 307.659 210.62 307.775 210.548C307.889 210.479 308.016 210.444 308.158 210.444Z" fill="#F5F5F5" fill-opacity="0.62"/>
<line x1="63.5" y1="15.9959" x2="67.5" y2="507.996" stroke="#828282" stroke-opacity="0.06"/>
<line x1="117.5" y1="13.9959" x2="121.5" y2="505.996" stroke="#828282" stroke-opacity="0.07"/>
<line x1="169.5" y1="12.9959" x2="173.5" y2="504.996" stroke="#828282" stroke-opacity="0.07"/>
<line x1="221.5" y1="10.9959" x2="225.5" y2="502.996" stroke="#828282" stroke-opacity="0.07"/>
<line opacity="0.9" x1="271.5" y1="14.9959" x2="275.5" y2="506.996" stroke="#828282" stroke-opacity="0.07"/>
<line x1="320.5" y1="12.9959" x2="324.5" y2="504.996" stroke="#828282" stroke-opacity="0.07"/>
<line x1="16.9986" y1="66.4706" x2="361.999" y2="65.5" stroke="#9D9C9C" stroke-opacity="0.03"/>
<line x1="18.9986" y1="112.471" x2="363.999" y2="111.5" stroke="#9D9C9C" stroke-opacity="0.03"/>
<line x1="21.9986" y1="158.471" x2="366.999" y2="157.5" stroke="#9D9C9C" stroke-opacity="0.03"/>
<line x1="17.9986" y1="207.471" x2="362.999" y2="206.5" stroke="#9D9C9C" stroke-opacity="0.03"/>
<line x1="20.9986" y1="258.471" x2="365.999" y2="257.5" stroke="#9D9C9C" stroke-opacity="0.03"/>
<line x1="18.9986" y1="310.471" x2="363.999" y2="309.5" stroke="#9D9C9C" stroke-opacity="0.03"/>
<line x1="20.9986" y1="360.471" x2="365.999" y2="359.5" stroke="#9D9C9C" stroke-opacity="0.03"/>
<line x1="18.9986" y1="412.471" x2="363.999" y2="411.5" stroke="#9D9C9C" stroke-opacity="0.03"/>
<line x1="21.9986" y1="462.471" x2="366.999" y2="461.5" stroke="#9D9C9C" stroke-opacity="0.05"/>
</svg>
