<?xml version="1.0" standalone="no"?>
<!DOCTYPE svg PUBLIC "-//W3C//DTD SVG 20010904//EN"
 "http://www.w3.org/TR/2001/REC-SVG-20010904/DTD/svg10.dtd">
<svg version="1.0" xmlns="http://www.w3.org/2000/svg"
 width="512.000000pt" height="512.000000pt" viewBox="0 0 512.000000 512.000000"
 preserveAspectRatio="xMidYMid meet">

<g transform="translate(0.000000,512.000000) scale(0.100000,-0.100000)"
fill="#000000" stroke="none">
<path d="M1196 5108 c-56 -15 -120 -82 -134 -140 -7 -26 -12 -92 -12 -147 l0
-101 -132 0 c-152 0 -300 -20 -379 -50 -253 -96 -426 -279 -506 -535 l-28 -90
0 -1675 0 -1675 23 -85 c47 -179 156 -341 300 -448 88 -65 166 -103 279 -134
77 -22 88 -22 900 -26 549 -2 836 1 861 8 94 25 152 96 152 188 0 83 -46 152
-125 188 -11 5 -400 11 -865 14 l-845 5 -59 29 c-77 39 -155 116 -192 191
l-29 60 0 1675 0 1675 29 60 c37 75 115 152 192 190 58 29 64 30 240 33 l181
4 5 -124 c5 -140 19 -181 76 -227 94 -78 231 -51 291 58 21 38 25 61 29 168
l5 123 447 0 447 0 5 -123 c5 -139 19 -180 76 -226 94 -78 231 -51 291 58 21
38 25 61 29 168 l5 123 452 0 452 0 5 -123 c5 -139 19 -180 76 -226 94 -78
231 -51 291 58 21 38 25 61 29 168 l5 125 186 -4 c180 -3 188 -4 243 -32 81
-40 153 -112 191 -193 l32 -68 5 -645 c6 -721 2 -687 78 -749 94 -79 230 -51
292 59 l25 45 3 565 c4 713 -3 790 -87 965 -78 164 -208 291 -382 374 -117 57
-194 71 -405 78 l-181 6 -5 121 c-4 98 -9 129 -26 163 -62 120 -212 144 -307
48 -52 -51 -65 -99 -65 -234 l0 -101 -454 0 -453 0 -5 123 c-4 99 -9 130 -26
164 -62 120 -212 144 -307 48 -52 -51 -65 -99 -65 -234 l0 -101 -449 0 -448 0
-5 123 c-4 99 -9 130 -26 164 -26 50 -72 87 -127 102 -46 12 -47 12 -99 -1z"/>
<path d="M1201 3208 c-61 -13 -125 -79 -139 -142 -15 -72 2 -130 53 -181 137
-137 364 -12 323 178 -22 104 -127 168 -237 145z"/>
<path d="M2071 3208 c-61 -13 -125 -79 -139 -142 -15 -72 2 -130 53 -181 137
-137 364 -12 323 178 -22 104 -127 168 -237 145z"/>
<path d="M2941 3208 c-61 -13 -125 -79 -139 -142 -15 -72 2 -130 53 -181 137
-137 364 -12 323 178 -22 104 -127 168 -237 145z"/>
<path d="M3811 3208 c-61 -13 -125 -79 -139 -142 -15 -72 2 -130 53 -181 137
-137 364 -12 323 178 -22 104 -127 168 -237 145z"/>
<path d="M3805 2409 c-413 -32 -783 -285 -972 -664 -86 -172 -124 -334 -124
-535 0 -205 37 -362 126 -540 169 -336 496 -581 861 -645 104 -18 299 -21 399
-5 99 15 256 65 345 110 420 211 671 614 671 1075 0 711 -594 1258 -1306 1204z
m320 -414 c214 -58 410 -220 510 -420 133 -268 110 -592 -59 -829 -126 -177
-320 -300 -531 -337 -99 -17 -282 -7 -370 21 -263 83 -462 282 -545 545 -28
88 -38 271 -21 370 58 332 312 595 644 665 64 14 303 4 372 -15z"/>
<path d="M3854 1804 c-65 -16 -118 -74 -133 -145 -14 -66 -14 -424 0 -490 16
-72 76 -132 148 -148 65 -14 290 -14 362 -1 98 19 161 94 161 190 -1 115 -75
184 -210 196 l-69 7 -5 126 c-5 128 -15 167 -57 215 -42 47 -124 69 -197 50z"/>
<path d="M1201 2338 c-61 -13 -125 -79 -139 -142 -15 -72 2 -130 53 -181 79
-79 191 -79 270 0 140 139 12 365 -184 323z"/>
<path d="M2071 2338 c-61 -13 -125 -79 -139 -142 -15 -72 2 -130 53 -181 79
-79 191 -79 270 0 140 139 12 365 -184 323z"/>
<path d="M1201 1468 c-61 -13 -125 -79 -139 -142 -15 -72 2 -130 53 -181 79
-79 191 -79 270 0 140 139 12 365 -184 323z"/>
<path d="M2071 1468 c-61 -13 -125 -79 -139 -142 -15 -72 2 -130 53 -181 79
-79 191 -79 270 0 140 139 12 365 -184 323z"/>
</g>
</svg>
