<svg width="28" height="28" viewBox="0 0 28 28" fill="none" xmlns="http://www.w3.org/2000/svg">
<rect width="28" height="28" rx="14" fill="#131313"/>
<path d="M16 21.1663H12C8.37998 21.1663 6.83331 19.6197 6.83331 15.9997V11.9997C6.83331 8.37967 8.37998 6.83301 12 6.83301H13.3333C13.6066 6.83301 13.8333 7.05967 13.8333 7.33301C13.8333 7.60634 13.6066 7.83301 13.3333 7.83301H12C8.92665 7.83301 7.83331 8.92634 7.83331 11.9997V15.9997C7.83331 19.073 8.92665 20.1663 12 20.1663H16C19.0733 20.1663 20.1666 19.073 20.1666 15.9997V14.6663C20.1666 14.393 20.3933 14.1663 20.6666 14.1663C20.94 14.1663 21.1666 14.393 21.1666 14.6663V15.9997C21.1666 19.6197 19.62 21.1663 16 21.1663Z" fill="#F8F8F8"/>
<path d="M11.6666 17.7934C11.26 17.7934 10.8866 17.6467 10.6133 17.38C10.2866 17.0534 10.1466 16.58 10.22 16.08L10.5066 14.0734C10.56 13.6867 10.8133 13.1867 11.0866 12.9134L16.34 7.66004C17.6666 6.33337 19.0133 6.33337 20.34 7.66004C21.0666 8.38671 21.3933 9.12671 21.3266 9.86671C21.2666 10.4667 20.9466 11.0534 20.34 11.6534L15.0866 16.9067C14.8133 17.18 14.3133 17.4334 13.9266 17.4867L11.92 17.7734C11.8333 17.7934 11.7466 17.7934 11.6666 17.7934ZM17.0466 8.36671L11.7933 13.62C11.6666 13.7467 11.52 14.04 11.4933 14.2134L11.2066 16.22C11.18 16.4134 11.22 16.5734 11.32 16.6734C11.42 16.7734 11.58 16.8134 11.7733 16.7867L13.78 16.5C13.9533 16.4734 14.2533 16.3267 14.3733 16.2L19.6266 10.9467C20.06 10.5134 20.2866 10.1267 20.32 9.76671C20.36 9.33337 20.1333 8.87337 19.6266 8.36004C18.56 7.29337 17.8266 7.59337 17.0466 8.36671Z" fill="#F8F8F8"/>
<path d="M19.2334 12.5532C19.1867 12.5532 19.14 12.5465 19.1 12.5332C17.3467 12.0399 15.9534 10.6465 15.46 8.89319C15.3867 8.62652 15.54 8.35319 15.8067 8.27319C16.0734 8.19986 16.3467 8.35319 16.42 8.61986C16.82 10.0399 17.9467 11.1665 19.3667 11.5665C19.6333 11.6399 19.7867 11.9199 19.7134 12.1865C19.6534 12.4132 19.4534 12.5532 19.2334 12.5532Z" fill="#F8F8F8"/>
</svg>
