<svg width="20" height="21" viewBox="0 0 20 21" fill="none" xmlns="http://www.w3.org/2000/svg">
<path d="M7.8916 13.2333C7.73327 13.2333 7.57493 13.1749 7.44993 13.0499C6.7666 12.3666 6.3916 11.4583 6.3916 10.4999C6.3916 8.50827 8.00827 6.8916 9.99993 6.8916C10.9583 6.8916 11.8666 7.2666 12.5499 7.94993C12.6666 8.0666 12.7333 8.22494 12.7333 8.3916C12.7333 8.55827 12.6666 8.7166 12.5499 8.83327L8.33327 13.0499C8.20827 13.1749 8.04994 13.2333 7.8916 13.2333ZM9.99993 8.1416C8.69993 8.1416 7.6416 9.19993 7.6416 10.4999C7.6416 10.9166 7.74993 11.3166 7.94993 11.6666L11.1666 8.44993C10.8166 8.24993 10.4166 8.1416 9.99993 8.1416Z" fill="#F8F8F8"/>
<path d="M4.66654 15.9251C4.52487 15.9251 4.37487 15.8751 4.2582 15.7751C3.36654 15.0167 2.56654 14.0834 1.8832 13.0001C0.99987 11.6251 0.99987 9.3834 1.8832 8.00006C3.91654 4.81673 6.87487 2.9834 9.99987 2.9834C11.8332 2.9834 13.6415 3.61673 15.2249 4.8084C15.4999 5.01673 15.5582 5.4084 15.3499 5.6834C15.1415 5.9584 14.7499 6.01673 14.4749 5.8084C13.1082 4.77506 11.5582 4.2334 9.99987 4.2334C7.3082 4.2334 4.7332 5.85007 2.9332 8.67507C2.3082 9.65007 2.3082 11.3501 2.9332 12.3251C3.5582 13.3001 4.27487 14.1417 5.06654 14.8251C5.32487 15.0501 5.3582 15.4417 5.1332 15.7084C5.01654 15.8501 4.84154 15.9251 4.66654 15.9251Z" fill="#F8F8F8"/>
<path d="M10.0001 18.0166C8.8918 18.0166 7.80847 17.7916 6.7668 17.3499C6.45013 17.2166 6.30013 16.8499 6.43347 16.5333C6.5668 16.2166 6.93347 16.0666 7.25013 16.1999C8.13347 16.5749 9.05847 16.7666 9.9918 16.7666C12.6835 16.7666 15.2585 15.1499 17.0585 12.3249C17.6835 11.3499 17.6835 9.64992 17.0585 8.67492C16.8001 8.26658 16.5168 7.87492 16.2168 7.50825C16.0001 7.24158 16.0418 6.84992 16.3085 6.62492C16.5751 6.40825 16.9668 6.44158 17.1918 6.71658C17.5168 7.11658 17.8335 7.54992 18.1168 7.99992C19.0001 9.37492 19.0001 11.6166 18.1168 12.9999C16.0835 16.1833 13.1251 18.0166 10.0001 18.0166Z" fill="#F8F8F8"/>
<path d="M10.5751 14.0584C10.2835 14.0584 10.0168 13.85 9.95848 13.55C9.89181 13.2084 10.1168 12.8834 10.4585 12.825C11.3751 12.6584 12.1418 11.8917 12.3085 10.975C12.3751 10.6334 12.7001 10.4167 13.0418 10.475C13.3835 10.5417 13.6085 10.8667 13.5418 11.2084C13.2751 12.65 12.1251 13.7917 10.6918 14.0584C10.6501 14.05 10.6168 14.0584 10.5751 14.0584Z" fill="#F8F8F8"/>
<path d="M1.66686 19.4583C1.50853 19.4583 1.3502 19.3999 1.2252 19.2749C0.983529 19.0333 0.983529 18.6333 1.2252 18.3916L7.4502 12.1666C7.69186 11.9249 8.09186 11.9249 8.33353 12.1666C8.5752 12.4083 8.5752 12.8083 8.33353 13.0499L2.10853 19.2749C1.98353 19.3999 1.8252 19.4583 1.66686 19.4583Z" fill="#F8F8F8"/>
<path d="M12.1083 9.01662C11.9499 9.01662 11.7916 8.95829 11.6666 8.83329C11.4249 8.59162 11.4249 8.19162 11.6666 7.94995L17.8916 1.72495C18.1333 1.48328 18.5333 1.48328 18.7749 1.72495C19.0166 1.96662 19.0166 2.36662 18.7749 2.60828L12.5499 8.83329C12.4249 8.95829 12.2666 9.01662 12.1083 9.01662Z" fill="#F8F8F8"/>
</svg>
