<svg width="20" height="21" viewBox="0 0 20 21" fill="none" xmlns="http://www.w3.org/2000/svg">
<path d="M10 14.1083C8.00833 14.1083 6.39166 12.4916 6.39166 10.4999C6.39166 8.50827 8.00833 6.8916 10 6.8916C11.9917 6.8916 13.6083 8.50827 13.6083 10.4999C13.6083 12.4916 11.9917 14.1083 10 14.1083ZM10 8.1416C8.7 8.1416 7.64166 9.19993 7.64166 10.4999C7.64166 11.7999 8.7 12.8583 10 12.8583C11.3 12.8583 12.3583 11.7999 12.3583 10.4999C12.3583 9.19993 11.3 8.1416 10 8.1416Z" fill="#A9A9A9"/>
<path d="M10 18.0167C6.86669 18.0167 3.90836 16.1834 1.87502 13.0001C0.991691 11.6251 0.991691 9.3834 1.87502 8.00007C3.91669 4.81673 6.87502 2.9834 10 2.9834C13.125 2.9834 16.0834 4.81673 18.1167 8.00007C19 9.37507 19 11.6167 18.1167 13.0001C16.0834 16.1834 13.125 18.0167 10 18.0167ZM10 4.2334C7.30836 4.2334 4.73336 5.85007 2.93336 8.67507C2.30836 9.65007 2.30836 11.3501 2.93336 12.3251C4.73336 15.1501 7.30836 16.7667 10 16.7667C12.6917 16.7667 15.2667 15.1501 17.0667 12.3251C17.6917 11.3501 17.6917 9.65007 17.0667 8.67507C15.2667 5.85007 12.6917 4.2334 10 4.2334Z" fill="#A9A9A9"/>
</svg>
