<svg width="804" height="540" viewBox="0 0 804 540" fill="none" xmlns="http://www.w3.org/2000/svg">
<g id="Image">
<g id="circle">
<g id="Group 42">
<path id="Fill 26" fill-rule="evenodd" clip-rule="evenodd" d="M760.028 278.318C767.383 276.023 778.656 267.027 781.265 257.348C783.632 265.904 793.552 276.023 802.503 276.789C792.427 280.357 782.794 290.957 781.265 299.285C780.226 290.797 766.902 279.555 760.028 278.318Z" fill="#F5F5F5"/>
<path id="Fill 28" fill-rule="evenodd" clip-rule="evenodd" d="M5.10059 471.023C8.779 469.876 14.4132 465.379 15.7179 460.54C16.9011 464.815 21.8599 469.876 26.3353 470.26C21.2987 472.042 16.4832 477.343 15.7179 481.507C15.198 477.263 8.53604 471.641 5.10059 471.023Z" fill="#F5F5F5"/>
<path id="Fill 30" fill-rule="evenodd" clip-rule="evenodd" d="M73.3607 72.8371C73.3607 78.1457 69.0603 82.4457 63.7565 82.4457C58.4503 82.4457 54.1523 78.1457 54.1523 72.8371C54.1523 67.5309 58.4503 63.2285 63.7565 63.2285C69.0603 63.2285 73.3607 67.5309 73.3607 72.8371Z" fill="#F5F5F5"/>
<path id="Fill 32" fill-rule="evenodd" clip-rule="evenodd" d="M714.689 98.6388C714.689 107.508 707.5 114.698 698.637 114.698C689.769 114.698 682.582 107.508 682.582 98.6388C682.582 89.7691 689.769 82.5791 698.637 82.5791C707.5 82.5791 714.689 89.7691 714.689 98.6388Z" fill="#F5F5F5"/>
<path id="Fill 33" fill-rule="evenodd" clip-rule="evenodd" d="M107.084 483.11C107.084 491.98 99.8945 499.17 91.0313 499.17C82.1633 499.17 74.9766 491.98 74.9766 483.11C74.9766 474.241 82.1633 467.051 91.0313 467.051C99.8945 467.051 107.084 474.241 107.084 483.11Z" fill="#F5F5F5"/>
</g>
</g>
<g id="Empty Illustration" clip-path="url(#clip0_2085_14803)">
<path id="Vector" d="M574.388 172.399H223.357C218.621 172.402 214.08 174.284 210.731 177.633C207.383 180.982 205.5 185.523 205.497 190.259V512.333C205.5 517.069 207.383 521.61 210.731 524.959C214.08 528.308 218.621 530.19 223.357 530.193H574.388C579.124 530.191 583.666 528.308 587.015 524.96C590.364 521.611 592.247 517.069 592.25 512.333V190.259C592.247 185.523 590.364 180.981 587.015 177.633C583.666 174.284 579.124 172.401 574.388 172.399Z" fill="#505050"/>
<path id="Vector_2" d="M551.28 418.274H246.469C236.606 418.274 228.609 410.277 228.609 400.414V115.845C228.609 105.982 236.606 97.9849 246.469 97.9849H551.28C561.143 97.9849 569.139 105.982 569.139 115.845V400.414C569.139 410.277 561.143 418.274 551.28 418.274Z" fill="#383838"/>
<path id="Vector_3" d="M234.264 406.067V121.499C234.264 111.636 242.261 103.639 252.124 103.639H556.934C560.418 103.639 563.657 104.652 566.403 106.376C563.245 101.341 557.661 97.9849 551.28 97.9849H246.469C236.606 97.9849 228.609 105.982 228.609 115.845V400.414C228.609 406.797 231.966 412.38 237.001 415.539C235.276 412.791 234.264 409.553 234.264 406.069V406.067Z" fill="#202020"/>
<path id="Vector_4" d="M513.778 158.109H283.978V171.205H513.778V158.109ZM513.778 208.115H283.978V221.211H513.778V208.115ZM513.778 258.131H283.978V271.227H513.778V258.131ZM513.778 308.136H283.978V321.234H513.778V308.136Z" fill="#131313"/>
<path id="Vector_5" d="M311.361 265.866L369.107 323.614H311.361V265.866Z" fill="url(#paint0_linear_2085_14803)"/>
<path id="Vector_6" d="M592.252 328.377V261.944V195.511L569.142 172.399V328.376L592.252 328.377Z" fill="#505050"/>
<path id="Vector_7" d="M619.321 340.395L594.422 516.655C593.177 525.467 585.636 532.016 576.737 532.016H221.012C212.113 532.016 204.572 525.467 203.327 516.655L169.679 278.485C168.161 267.733 176.504 258.126 187.363 258.126H297.219C306.117 258.126 313.658 264.675 314.903 273.485L319.313 304.675C320.558 313.487 328.099 320.036 336.998 320.036H601.64C612.495 320.036 620.839 329.643 619.321 340.395Z" fill="#505050"/>
<path id="Vector_8" d="M531.1 453.397H266.653C265.203 453.396 263.804 452.867 262.716 451.909C261.629 450.951 260.928 449.629 260.746 448.191L257.437 421.995C257.332 421.157 257.406 420.306 257.655 419.499C257.904 418.692 258.321 417.947 258.88 417.313C259.438 416.68 260.125 416.172 260.895 415.825C261.665 415.477 262.5 415.297 263.344 415.296H534.408C535.253 415.297 536.088 415.477 536.857 415.825C537.627 416.172 538.314 416.68 538.873 417.313C539.431 417.947 539.849 418.692 540.097 419.499C540.346 420.306 540.421 421.157 540.315 421.995L537.007 448.191C536.824 449.629 536.123 450.951 535.036 451.909C533.949 452.867 532.549 453.396 531.1 453.397Z" fill="url(#paint1_linear_2085_14803)"/>
</g>
</g>
<defs>
<linearGradient id="paint0_linear_2085_14803" x1="349.514" y1="332.879" x2="279.714" y2="263.081" gradientUnits="userSpaceOnUse">
<stop stop-color="#C2CECE" stop-opacity="0"/>
<stop offset="0.179" stop-color="#AFBCBC" stop-opacity="0.179"/>
<stop offset="1" stop-color="#5B6A6A"/>
</linearGradient>
<linearGradient id="paint1_linear_2085_14803" x1="257.391" y1="434.347" x2="540.362" y2="434.347" gradientUnits="userSpaceOnUse">
<stop stop-color="#D2C13D"/>
<stop offset="1" stop-color="#FCE849"/>
</linearGradient>
<clipPath id="clip0_2085_14803">
<rect width="150" height="150" fill="white" transform="matrix(3 0 0 3 169.5 90)"/>
</clipPath>
</defs>
</svg>
