<svg width="24" height="25" viewBox="0 0 24 25" fill="none" xmlns="http://www.w3.org/2000/svg">
<path d="M17.2496 12.5C17.2548 15.5305 16.6643 18.5324 15.5115 21.335C15.4556 21.4733 15.3597 21.5917 15.2361 21.6752C15.1126 21.7587 14.9669 21.8035 14.8178 21.8038C14.7213 21.8028 14.6259 21.7838 14.5365 21.7475C14.4453 21.7101 14.3624 21.655 14.2924 21.5855C14.2225 21.516 14.167 21.4334 14.129 21.3424C14.091 21.2514 14.0714 21.1538 14.0712 21.0552C14.071 20.9566 14.0902 20.859 14.1278 20.7678C15.2052 18.1449 15.7563 15.3356 15.7496 12.5C15.7496 12.3011 15.8287 12.1103 15.9693 11.9697C16.11 11.829 16.3007 11.75 16.4996 11.75C16.6986 11.75 16.8893 11.829 17.03 11.9697C17.1706 12.1103 17.2496 12.3011 17.2496 12.5ZM11.9996 8.75001C12.5271 8.75038 13.0486 8.86185 13.5301 9.07717C14.0116 9.29249 14.4424 9.60682 14.7943 9.99969C14.8595 10.0749 14.939 10.1363 15.0281 10.1805C15.1173 10.2247 15.2143 10.2506 15.3136 10.2569C15.4129 10.2632 15.5125 10.2497 15.6065 10.2171C15.7005 10.1845 15.7871 10.1336 15.8612 10.0672C15.9354 10.0009 15.9956 9.92044 16.0383 9.83059C16.081 9.74074 16.1055 9.64329 16.1102 9.54391C16.1149 9.44452 16.0998 9.3452 16.0657 9.25171C16.0317 9.15823 15.9794 9.07245 15.9118 8.99938C15.2029 8.20718 14.2701 7.64887 13.237 7.39832C12.2038 7.14776 11.119 7.21676 10.1259 7.59619C9.13278 7.97562 8.27828 8.6476 7.67542 9.52324C7.07255 10.3989 6.74972 11.4369 6.74964 12.5C6.74954 14.6596 6.20116 16.7837 5.15589 18.6734C5.10812 18.7596 5.07779 18.8544 5.06664 18.9523C5.05549 19.0502 5.06373 19.1493 5.09089 19.244C5.11805 19.3387 5.1636 19.4272 5.22494 19.5043C5.28628 19.5814 5.36221 19.6457 5.44839 19.6934C5.53457 19.7412 5.62931 19.7715 5.72721 19.7827C5.82511 19.7938 5.92425 19.7856 6.01897 19.7584C6.11368 19.7313 6.20212 19.6857 6.27923 19.6244C6.35635 19.5631 6.42062 19.4871 6.46839 19.4009C7.63655 17.2884 8.24944 14.914 8.24964 12.5C8.24964 11.5054 8.64473 10.5516 9.34799 9.84836C10.0513 9.1451 11.0051 8.75001 11.9996 8.75001ZM11.9996 2.75001C10.8925 2.74867 9.79328 2.93637 8.74933 3.30501C8.56514 3.37387 8.41536 3.51232 8.33225 3.69055C8.24914 3.86877 8.23936 4.0725 8.305 4.25786C8.37064 4.44323 8.50645 4.5954 8.6832 4.68161C8.85994 4.76781 9.06347 4.78115 9.24995 4.71876C10.4945 4.27991 11.8262 4.14586 13.1333 4.32785C14.4404 4.50983 15.6848 5.00256 16.7621 5.7647C17.8395 6.52684 18.7185 7.53618 19.3253 8.70809C19.9321 9.88 20.2491 11.1803 20.2496 12.5C20.2505 14.4628 20.0323 16.4197 19.599 18.3341C19.555 18.5276 19.5894 18.7307 19.6949 18.8989C19.8003 19.0671 19.9681 19.1866 20.1615 19.2313C20.2162 19.2439 20.2722 19.2502 20.3284 19.25C20.4984 19.25 20.6634 19.1921 20.7963 19.086C20.9292 18.9799 21.022 18.8318 21.0596 18.6659C21.5178 16.6426 21.7492 14.5746 21.7496 12.5C21.7469 9.91498 20.7188 7.43662 18.8909 5.60873C17.063 3.78084 14.5847 2.75274 11.9996 2.75001ZM6.50026 6.35188C6.5737 6.2862 6.63348 6.2067 6.6762 6.11791C6.71891 6.02913 6.74372 5.9328 6.7492 5.83443C6.75468 5.73605 6.74074 5.63757 6.70816 5.54458C6.67558 5.4516 6.62501 5.36594 6.55933 5.29251C6.49365 5.21907 6.41414 5.15929 6.32536 5.11658C6.23657 5.07386 6.14024 5.04906 6.04187 5.04357C5.9435 5.03809 5.84501 5.05203 5.75203 5.08461C5.65905 5.11719 5.57339 5.16776 5.49995 5.23344C4.47824 6.14847 3.66075 7.26847 3.10073 8.52049C2.54071 9.7725 2.25071 11.1285 2.24964 12.5C2.25174 13.6865 1.99583 14.8592 1.49964 15.9369C1.45852 16.0264 1.43543 16.1231 1.43169 16.2215C1.42795 16.32 1.44364 16.4182 1.47785 16.5105C1.54695 16.6971 1.68732 16.8485 1.86808 16.9316C2.04884 17.0146 2.25519 17.0225 2.44173 16.9534C2.62827 16.8843 2.77972 16.7439 2.86276 16.5631C3.44951 15.2891 3.75213 13.9027 3.74964 12.5C3.75063 11.3395 3.99609 10.1922 4.47002 9.13293C4.94394 8.07362 5.63571 7.12603 6.50026 6.35188ZM10.6796 19.3194C10.5901 19.2783 10.4934 19.2552 10.395 19.2514C10.2966 19.2477 10.1983 19.2634 10.106 19.2976C10.0136 19.3318 9.92889 19.3839 9.85665 19.4508C9.78441 19.5178 9.72607 19.5983 9.68495 19.6878C9.50495 20.0816 9.30995 20.4744 9.09526 20.8541C9.04731 20.9403 9.01683 21.0351 9.00558 21.1331C8.99433 21.2311 9.00252 21.3304 9.02969 21.4252C9.05686 21.5201 9.10248 21.6086 9.16392 21.6858C9.22536 21.763 9.30143 21.8273 9.38776 21.875C9.49863 21.9369 9.62359 21.9692 9.75058 21.9688C9.88448 21.9688 10.016 21.933 10.1314 21.8651C10.2468 21.7972 10.3419 21.6996 10.4068 21.5825C10.6356 21.1691 10.8512 20.7388 11.0481 20.315C11.0893 20.2255 11.1126 20.1286 11.1164 20.0301C11.1202 19.9316 11.1045 19.8333 11.0703 19.7408C11.0361 19.6483 10.984 19.5635 10.9169 19.4912C10.8499 19.4189 10.7693 19.3605 10.6796 19.3194ZM11.9996 11.75C11.8007 11.75 11.61 11.829 11.4693 11.9697C11.3287 12.1103 11.2496 12.3011 11.2496 12.5C11.2502 13.9546 11.0678 15.4034 10.7068 16.8125C10.6573 17.0051 10.6862 17.2094 10.7873 17.3807C10.8884 17.5519 11.0533 17.676 11.2459 17.7256C11.3072 17.7412 11.3702 17.7491 11.4334 17.7491C11.5996 17.7489 11.761 17.6936 11.8923 17.5918C12.0237 17.49 12.1175 17.3475 12.159 17.1866C12.5521 15.6551 12.7505 14.0802 12.7496 12.4991C12.7494 12.3003 12.6703 12.1098 12.5296 11.9693C12.389 11.8289 12.1984 11.75 11.9996 11.75Z" fill="#A9A9A9"/>
</svg>
