<svg width="23" height="20" viewBox="0 0 23 20" fill="none" xmlns="http://www.w3.org/2000/svg">
<path d="M11.625 19.65C11.315 19.65 11.015 19.61 10.765 19.52C6.945 18.21 0.875 13.56 0.875 6.68998C0.875 3.18998 3.705 0.349976 7.185 0.349976C8.875 0.349976 10.455 1.00998 11.625 2.18998C12.795 1.00998 14.375 0.349976 16.065 0.349976C19.545 0.349976 22.375 3.19998 22.375 6.68998C22.375 13.57 16.305 18.21 12.485 19.52C12.235 19.61 11.935 19.65 11.625 19.65ZM7.185 1.84998C4.535 1.84998 2.375 4.01998 2.375 6.68998C2.375 13.52 8.945 17.32 11.255 18.11C11.435 18.17 11.825 18.17 12.005 18.11C14.305 17.32 20.885 13.53 20.885 6.68998C20.885 4.01998 18.725 1.84998 16.075 1.84998C14.555 1.84998 13.145 2.55998 12.235 3.78998C11.955 4.16998 11.315 4.16998 11.035 3.78998C10.105 2.54998 8.705 1.84998 7.185 1.84998Z" fill="#D0D5DD"/>
</svg>
