<svg width="20" height="21" viewBox="0 0 20 21" fill="none" xmlns="http://www.w3.org/2000/svg">
<path d="M5.15011 19.4582C5.06678 19.4582 4.97511 19.4499 4.90011 19.4415L3.09178 19.1915C2.22511 19.0749 1.44178 18.2999 1.30845 17.4165L1.05845 15.5915C0.975114 15.0082 1.22511 14.2499 1.64178 13.8249L5.30011 10.1665C4.70845 7.79985 5.39178 5.29985 7.13345 3.57485C9.83345 0.883188 14.2251 0.874855 16.9334 3.57485C18.2418 4.88319 18.9584 6.62485 18.9584 8.47485C18.9584 10.3249 18.2418 12.0665 16.9334 13.3749C15.1834 15.1082 12.6918 15.7915 10.3418 15.1915L6.67511 18.8499C6.32511 19.2165 5.70011 19.4582 5.15011 19.4582ZM12.0251 2.79985C10.5668 2.79985 9.11678 3.34985 8.00845 4.45819C6.50845 5.94985 5.96678 8.13319 6.59178 10.1665C6.65845 10.3915 6.60011 10.6249 6.43345 10.7915L2.51678 14.7082C2.37511 14.8499 2.25845 15.2165 2.28345 15.4082L2.53345 17.2332C2.58345 17.5499 2.92511 17.9082 3.24178 17.9499L5.05845 18.1999C5.25845 18.2332 5.62511 18.1165 5.76678 17.9749L9.70011 14.0499C9.86678 13.8832 10.1084 13.8332 10.3251 13.8999C12.3334 14.5332 14.5251 13.9915 16.0251 12.4915C17.0918 11.4249 17.6834 9.99152 17.6834 8.47485C17.6834 6.94985 17.0918 5.52485 16.0251 4.45819C14.9418 3.35819 13.4834 2.79985 12.0251 2.79985Z" fill="#A9A9A9"/>
<path d="M7.65842 17.6167C7.50008 17.6167 7.34175 17.5584 7.21675 17.4334L5.30009 15.5167C5.05842 15.2751 5.05842 14.8751 5.30009 14.6334C5.54175 14.3917 5.94175 14.3917 6.18342 14.6334L8.10009 16.5501C8.34175 16.7917 8.34175 17.1917 8.10009 17.4334C7.97509 17.5584 7.81675 17.6167 7.65842 17.6167Z" fill="#A9A9A9"/>
<path d="M12.0833 10.2917C11.05 10.2917 10.2083 9.45008 10.2083 8.41675C10.2083 7.38341 11.05 6.54175 12.0833 6.54175C13.1166 6.54175 13.9583 7.38341 13.9583 8.41675C13.9583 9.45008 13.1166 10.2917 12.0833 10.2917ZM12.0833 7.79175C11.7416 7.79175 11.4583 8.07508 11.4583 8.41675C11.4583 8.75841 11.7416 9.04175 12.0833 9.04175C12.425 9.04175 12.7083 8.75841 12.7083 8.41675C12.7083 8.07508 12.425 7.79175 12.0833 7.79175Z" fill="#A9A9A9"/>
</svg>
