<svg width="28" height="28" viewBox="0 0 28 28" fill="none" xmlns="http://www.w3.org/2000/svg">
<rect width="28" height="28" rx="14" fill="#383838"/>
<path d="M22 6H6V22H22V6Z" fill="#383838"/>
<path d="M17.6933 11.8734C18.7831 11.8734 19.6666 10.9899 19.6666 9.90009C19.6666 8.81025 18.7831 7.92676 17.6933 7.92676C16.6035 7.92676 15.72 8.81025 15.72 9.90009C15.72 10.9899 16.6035 11.8734 17.6933 11.8734Z" fill="#F8F8F8"/>
<path d="M10.3066 11.8734C11.3965 11.8734 12.28 10.9899 12.28 9.90009C12.28 8.81025 11.3965 7.92676 10.3066 7.92676C9.2168 7.92676 8.33331 8.81025 8.33331 9.90009C8.33331 10.9899 9.2168 11.8734 10.3066 11.8734Z" fill="#F8F8F8"/>
<path d="M17.6933 20.0731C18.7831 20.0731 19.6666 19.1896 19.6666 18.0998C19.6666 17.01 18.7831 16.1265 17.6933 16.1265C16.6035 16.1265 15.72 17.01 15.72 18.0998C15.72 19.1896 16.6035 20.0731 17.6933 20.0731Z" fill="#F8F8F8"/>
<path d="M10.3066 20.0731C11.3965 20.0731 12.28 19.1896 12.28 18.0998C12.28 17.01 11.3965 16.1265 10.3066 16.1265C9.2168 16.1265 8.33331 17.01 8.33331 18.0998C8.33331 19.1896 9.2168 20.0731 10.3066 20.0731Z" fill="#F8F8F8"/>
</svg>
