<svg width="24" height="25" viewBox="0 0 24 25" fill="none" xmlns="http://www.w3.org/2000/svg">
<path d="M22.5002 9.5C22.5002 9.69891 22.4212 9.88968 22.2805 10.0303C22.1399 10.171 21.9491 10.25 21.7502 10.25H20.2502V11.75C20.2502 11.9489 20.1712 12.1397 20.0305 12.2803C19.8899 12.421 19.6991 12.5 19.5002 12.5C19.3013 12.5 19.1105 12.421 18.9699 12.2803C18.8292 12.1397 18.7502 11.9489 18.7502 11.75V10.25H17.2502C17.0513 10.25 16.8605 10.171 16.7199 10.0303C16.5792 9.88968 16.5002 9.69891 16.5002 9.5C16.5002 9.30109 16.5792 9.11032 16.7199 8.96967C16.8605 8.82902 17.0513 8.75 17.2502 8.75H18.7502V7.25C18.7502 7.05109 18.8292 6.86032 18.9699 6.71967C19.1105 6.57902 19.3013 6.5 19.5002 6.5C19.6991 6.5 19.8899 6.57902 20.0305 6.71967C20.1712 6.86032 20.2502 7.05109 20.2502 7.25V8.75H21.7502C21.9491 8.75 22.1399 8.82902 22.2805 8.96967C22.4212 9.11032 22.5002 9.30109 22.5002 9.5ZM13.5002 5.75H14.2502V6.5C14.2502 6.69891 14.3292 6.88968 14.4699 7.03033C14.6105 7.17098 14.8013 7.25 15.0002 7.25C15.1991 7.25 15.3899 7.17098 15.5305 7.03033C15.6712 6.88968 15.7502 6.69891 15.7502 6.5V5.75H16.5002C16.6991 5.75 16.8899 5.67098 17.0305 5.53033C17.1712 5.38968 17.2502 5.19891 17.2502 5C17.2502 4.80109 17.1712 4.61032 17.0305 4.46967C16.8899 4.32902 16.6991 4.25 16.5002 4.25H15.7502V3.5C15.7502 3.30109 15.6712 3.11032 15.5305 2.96967C15.3899 2.82902 15.1991 2.75 15.0002 2.75C14.8013 2.75 14.6105 2.82902 14.4699 2.96967C14.3292 3.11032 14.2502 3.30109 14.2502 3.5V4.25H13.5002C13.3013 4.25 13.1105 4.32902 12.9699 4.46967C12.8292 4.61032 12.7502 4.80109 12.7502 5C12.7502 5.19891 12.8292 5.38968 12.9699 5.53033C13.1105 5.67098 13.3013 5.75 13.5002 5.75ZM20.3224 14.8438C20.4097 14.9454 20.4682 15.0686 20.4917 15.2005C20.5153 15.3324 20.5031 15.4682 20.4564 15.5938C19.936 17.013 19.0665 18.2784 17.9281 19.273C16.7897 20.2676 15.4191 20.9594 13.9428 21.2846C12.4665 21.6098 10.9321 21.558 9.48113 21.1338C8.03017 20.7096 6.70944 19.9267 5.64082 18.8575C4.5722 17.7883 3.79012 16.4671 3.36675 15.0159C2.94339 13.5647 2.89238 12.0303 3.21843 10.5542C3.54449 9.07806 4.2371 7.70786 5.23235 6.57002C6.2276 5.43218 7.49343 4.56337 8.91301 4.04375C9.03795 3.99799 9.17283 3.9863 9.30378 4.00987C9.43474 4.03344 9.55707 4.09142 9.65822 4.17788C9.75938 4.26434 9.8357 4.37614 9.87938 4.50184C9.92305 4.62753 9.9325 4.76258 9.90676 4.89313C9.64393 6.22341 9.71279 7.59795 10.1073 8.8953C10.5017 10.1927 11.2096 11.3729 12.1685 12.3317C13.1273 13.2906 14.3075 13.9985 15.6049 14.3929C16.9022 14.7874 18.2768 14.8563 19.6071 14.5934C19.7378 14.5679 19.8729 14.5776 19.9987 14.6216C20.1244 14.6656 20.2361 14.7423 20.3224 14.8438ZM18.5046 16.2388C18.3368 16.2472 18.168 16.2519 18.0002 16.2519C15.4148 16.2491 12.9362 15.2208 11.1083 13.3925C9.28031 11.5642 8.25243 9.08535 8.25019 6.5C8.25019 6.33219 8.25019 6.16344 8.26332 5.99562C7.26543 6.56985 6.41313 7.36611 5.77247 8.32271C5.13181 9.2793 4.71998 10.3706 4.56888 11.5119C4.41779 12.6533 4.53149 13.8141 4.90118 14.9044C5.27086 15.9948 5.88661 16.9854 6.70071 17.7995C7.51482 18.6136 8.50542 19.2293 9.59576 19.599C10.6861 19.9687 11.8469 20.0824 12.9883 19.9313C14.1296 19.7802 15.2209 19.3684 16.1775 18.7277C17.1341 18.0871 17.9303 17.2348 18.5046 16.2369V16.2388Z" fill="#A9A9A9"/>
</svg>
