<svg width="25" height="24" viewBox="0 0 25 24" fill="none" xmlns="http://www.w3.org/2000/svg">
<path d="M8.375 5.75C7.965 5.75 7.625 5.41 7.625 5V2C7.625 1.59 7.965 1.25 8.375 1.25C8.785 1.25 9.125 1.59 9.125 2V5C9.125 5.41 8.785 5.75 8.375 5.75Z" fill="#D0D5DD"/>
<path d="M16.375 5.75C15.965 5.75 15.625 5.41 15.625 5V2C15.625 1.59 15.965 1.25 16.375 1.25C16.785 1.25 17.125 1.59 17.125 2V5C17.125 5.41 16.785 5.75 16.375 5.75Z" fill="#D0D5DD"/>
<path d="M15.375 13.75H7.375C6.965 13.75 6.625 13.41 6.625 13C6.625 12.59 6.965 12.25 7.375 12.25H15.375C15.785 12.25 16.125 12.59 16.125 13C16.125 13.41 15.785 13.75 15.375 13.75Z" fill="#D0D5DD"/>
<path d="M12.375 17.75H7.375C6.965 17.75 6.625 17.41 6.625 17C6.625 16.59 6.965 16.25 7.375 16.25H12.375C12.785 16.25 13.125 16.59 13.125 17C13.125 17.41 12.785 17.75 12.375 17.75Z" fill="#D0D5DD"/>
<path d="M15.375 22.75H9.375C3.755 22.75 2.625 20.1 2.625 15.82V9.65C2.625 4.91 4.225 2.98 8.335 2.75H16.375C16.385 2.75 16.405 2.75 16.415 2.75C20.525 2.98 22.125 4.91 22.125 9.65V15.82C22.125 20.1 20.995 22.75 15.375 22.75ZM8.375 4.25C5.575 4.41 4.125 5.29 4.125 9.65V15.82C4.125 19.65 4.855 21.25 9.375 21.25H15.375C19.895 21.25 20.625 19.65 20.625 15.82V9.65C20.625 5.3 19.185 4.41 16.355 4.25H8.375Z" fill="#D0D5DD"/>
</svg>
