<svg width="25" height="24" viewBox="0 0 25 24" fill="none" xmlns="http://www.w3.org/2000/svg">
<path d="M8.66504 6.29C8.24504 6.29 7.91504 5.95 7.91504 5.54V2.75C7.91504 2.34 8.24504 2 8.66504 2C9.08504 2 9.41504 2.34 9.41504 2.75V5.53C9.41504 5.95 9.08504 6.29 8.66504 6.29Z" fill="white"/>
<path d="M16.085 6.29C15.665 6.29 15.335 5.95 15.335 5.54V2.75C15.335 2.33 15.675 2 16.085 2C16.505 2 16.835 2.34 16.835 2.75V5.53C16.835 5.95 16.505 6.29 16.085 6.29Z" fill="white"/>
<path d="M19.945 4.5C19.285 4.01 18.335 4.48 18.335 5.31V5.41C18.335 6.58 17.495 7.66 16.325 7.78C14.975 7.92 13.835 6.86 13.835 5.54V4.5C13.835 3.95 13.385 3.5 12.835 3.5H11.915C11.365 3.5 10.915 3.95 10.915 4.5V5.54C10.915 6.33 10.505 7.03 9.885 7.42C9.795 7.48 9.695 7.53 9.595 7.58C9.505 7.63 9.405 7.67 9.295 7.7C9.175 7.74 9.045 7.77 8.905 7.78C8.745 7.8 8.585 7.8 8.425 7.78C8.285 7.77 8.155 7.74 8.035 7.7C7.935 7.67 7.835 7.63 7.735 7.58C7.635 7.53 7.535 7.48 7.445 7.42C6.815 6.98 6.415 6.22 6.415 5.41V5.31C6.415 4.54 5.595 4.08 4.945 4.41C4.935 4.42 4.925 4.42 4.915 4.43C4.875 4.45 4.845 4.47 4.805 4.5C4.775 4.53 4.735 4.55 4.705 4.58C4.425 4.8 4.175 5.05 3.965 5.32C3.855 5.44 3.765 5.57 3.685 5.7C3.675 5.71 3.665 5.72 3.655 5.74C3.565 5.87 3.485 6.02 3.415 6.16C3.395 6.18 3.385 6.19 3.385 6.21C3.325 6.33 3.265 6.45 3.225 6.58C3.195 6.63 3.185 6.67 3.165 6.72C3.105 6.87 3.065 7.02 3.025 7.17C2.985 7.31 2.955 7.46 2.935 7.61C2.915 7.72 2.905 7.83 2.895 7.95C2.885 8.09 2.875 8.23 2.875 8.37V17.13C2.875 19.82 5.055 22 7.745 22H17.005C19.695 22 21.875 19.82 21.875 17.13V8.37C21.875 6.78 21.115 5.39 19.945 4.5ZM12.375 17.42H7.735C7.325 17.42 6.985 17.08 6.985 16.67C6.985 16.25 7.325 15.91 7.735 15.91H12.375C12.795 15.91 13.125 16.25 13.125 16.67C13.125 17.08 12.795 17.42 12.375 17.42ZM15.155 13.71H7.735C7.325 13.71 6.985 13.37 6.985 12.96C6.985 12.54 7.325 12.2 7.735 12.2H15.155C15.575 12.2 15.915 12.54 15.915 12.96C15.915 13.37 15.575 13.71 15.155 13.71Z" fill="white"/>
</svg>
