<svg width="32" height="33" viewBox="0 0 32 33" fill="none" xmlns="http://www.w3.org/2000/svg">
<path d="M23.2397 11.4141C23.4947 9.7515 23.2397 8.6431 22.3472 7.61997C21.3697 6.46894 19.5847 6 17.2897 6H10.7021C10.2346 6 9.85214 6.34105 9.76714 6.80998L7.00463 24.2886C6.96213 24.6296 7.21713 24.928 7.55714 24.928H11.6371L11.3396 26.7185C11.2971 27.0169 11.5096 27.2727 11.8496 27.2727H15.2922C15.7172 27.2727 16.0572 26.9743 16.0997 26.5906L16.8222 22.0718C16.8647 21.6881 17.2472 21.3897 17.6297 21.3897H18.1397C21.4547 21.3897 24.0897 20.0255 24.8547 16.1035C25.1522 14.4835 25.0247 13.0767 24.1747 12.1388C23.9197 11.8404 23.6222 11.6273 23.2397 11.4141Z" fill="#009CDE"/>
<path d="M23.2397 11.4141C23.4947 9.7515 23.2397 8.6431 22.3472 7.61997C21.3697 6.46894 19.5847 6 17.2897 6H10.7021C10.2346 6 9.85214 6.34105 9.76714 6.80998L7.00463 24.2886C6.96213 24.6296 7.21713 24.928 7.55714 24.928H11.6371L12.6146 18.6187C12.6996 18.1498 13.0821 17.8087 13.5496 17.8087H15.5047C19.3297 17.8087 22.3047 16.274 23.1547 11.7551C23.1972 11.6699 23.1972 11.542 23.2397 11.4141Z" fill="#012169"/>
<path d="M13.7621 11.4567C13.8046 11.1583 14.1872 10.7746 14.5697 10.7746H19.7547C20.3497 10.7746 20.9447 10.8173 21.4547 10.9025C21.9222 10.9878 22.7722 11.2009 23.1972 11.4567C23.4522 9.79413 23.1972 8.68573 22.3047 7.6626C21.3697 6.46894 19.5847 6 17.2897 6H10.7021C10.2346 6 9.85214 6.34105 9.76714 6.80998L7.00463 24.2886C6.96213 24.6296 7.21713 24.928 7.55714 24.928H11.6371L13.7621 11.4567Z" fill="#003087"/>
</svg>
