<svg width="32" height="32" viewBox="0 0 32 32" fill="none" xmlns="http://www.w3.org/2000/svg">
<path d="M2.66669 11.9998V8.6665C2.66669 5.3465 5.34669 2.6665 8.66669 2.6665H12" stroke="#131313" stroke-width="1.5" stroke-linecap="round" stroke-linejoin="round"/>
<path d="M20 2.6665H23.3333C26.6533 2.6665 29.3333 5.3465 29.3333 8.6665V11.9998" stroke="#131313" stroke-width="1.5" stroke-linecap="round" stroke-linejoin="round"/>
<path d="M29.3333 21.3335V23.3335C29.3333 26.6535 26.6533 29.3335 23.3333 29.3335H21.3333" stroke="#131313" stroke-width="1.5" stroke-linecap="round" stroke-linejoin="round"/>
<path d="M12 29.3333H8.66669C5.34669 29.3333 2.66669 26.6533 2.66669 23.3333V20" stroke="#131313" stroke-width="1.5" stroke-linecap="round" stroke-linejoin="round"/>
<path d="M22.6666 12.6665V19.3332C22.6666 21.9998 21.3333 23.3332 18.6666 23.3332H13.3333C10.6666 23.3332 9.33331 21.9998 9.33331 19.3332V12.6665C9.33331 9.99984 10.6666 8.6665 13.3333 8.6665H18.6666C21.3333 8.6665 22.6666 9.99984 22.6666 12.6665Z" stroke="#131313" stroke-width="1.5" stroke-linecap="round" stroke-linejoin="round"/>
<path d="M25.3334 16H6.66669" stroke="#131313" stroke-width="1.5" stroke-linecap="round" stroke-linejoin="round"/>
</svg>
