<svg width="267" height="194" viewBox="0 0 267 194" fill="none" xmlns="http://www.w3.org/2000/svg">
<path fill-rule="evenodd" clip-rule="evenodd" d="M252.842 92.2726C255.293 91.5077 259.051 88.5091 259.921 85.2827C260.71 88.1347 264.016 91.5077 267 91.763C263.641 92.9524 260.43 96.4858 259.921 99.2617C259.574 96.4324 255.133 92.685 252.842 92.2726Z" fill="#F5F5F5"/>
<path fill-rule="evenodd" clip-rule="evenodd" d="M1.19971 156.508C2.42584 156.125 4.30392 154.626 4.73882 153.013C5.13322 154.438 6.78616 156.125 8.27793 156.253C6.59908 156.847 4.99393 158.614 4.73882 160.002C4.56551 158.588 2.34486 156.714 1.19971 156.508Z" fill="#F5F5F5"/>
<path fill-rule="evenodd" clip-rule="evenodd" d="M23.9536 23.779C23.9536 25.5486 22.5201 26.9819 20.7522 26.9819C18.9834 26.9819 17.5508 25.5486 17.5508 23.779C17.5508 22.0103 18.9834 20.5762 20.7522 20.5762C22.5201 20.5762 23.9536 22.0103 23.9536 23.779Z" fill="#F5F5F5"/>
<path fill-rule="evenodd" clip-rule="evenodd" d="M237.73 32.3796C237.73 35.3361 235.333 37.7328 232.379 37.7328C229.423 37.7328 227.027 35.3361 227.027 32.3796C227.027 29.423 229.423 27.0264 232.379 27.0264C235.333 27.0264 237.73 29.423 237.73 32.3796Z" fill="#F5F5F5"/>
<path fill-rule="evenodd" clip-rule="evenodd" d="M35.1936 160.537C35.1936 163.493 32.7972 165.89 29.8428 165.89C26.8868 165.89 24.4912 163.493 24.4912 160.537C24.4912 157.58 26.8868 155.184 29.8428 155.184C32.7972 155.184 35.1936 157.58 35.1936 160.537Z" fill="#F5F5F5"/>
<path fill-rule="evenodd" clip-rule="evenodd" d="M162.635 170.147H84.4067C78.9006 170.147 74.3936 165.625 74.3936 160.1V48.5203C74.3936 42.9946 78.9006 38.4756 84.4067 38.4756H162.635C168.144 38.4756 172.651 42.9946 172.651 48.5203V160.1C172.651 165.625 168.144 170.147 162.635 170.147Z" fill="#202020"/>
<path fill-rule="evenodd" clip-rule="evenodd" d="M155.957 174.917H77.729C72.2229 174.917 67.7158 170.396 67.7158 164.87V53.2908C67.7158 47.7651 72.2229 43.2461 77.729 43.2461H155.957C161.466 43.2461 165.973 47.7651 165.973 53.2908V164.87C165.973 170.396 161.466 174.917 155.957 174.917Z" fill="#383838"/>
<path fill-rule="evenodd" clip-rule="evenodd" d="M149.462 178.683H71.0719C65.5544 178.683 61.0381 174.181 61.0381 168.678V57.5607C61.0381 52.0579 65.5544 47.5576 71.0719 47.5576H149.462C154.982 47.5576 159.498 52.0579 159.498 57.5607V168.678C159.498 174.181 154.982 178.683 149.462 178.683Z" fill="#D8DBEA"/>
<path fill-rule="evenodd" clip-rule="evenodd" d="M149.462 178.683H71.0719C65.5544 178.683 61.0381 174.181 61.0381 168.678V57.5607C61.0381 52.0579 65.5544 47.5576 71.0719 47.5576H149.462C154.982 47.5576 159.498 52.0579 159.498 57.5607V168.678C159.498 174.181 154.982 178.683 149.462 178.683Z" fill="#505050"/>
<path fill-rule="evenodd" clip-rule="evenodd" d="M138.163 81.4118H80.2619C78.6084 81.4118 77.2549 80.1239 77.2549 78.5505C77.2549 76.9749 78.6084 75.687 80.2619 75.687H138.163C139.816 75.687 141.17 76.9749 141.17 78.5505C141.17 80.1239 139.816 81.4118 138.163 81.4118Z" fill="#131313"/>
<path fill-rule="evenodd" clip-rule="evenodd" d="M138.163 98.5862H80.2619C78.6084 98.5862 77.2549 97.2982 77.2549 95.7248C77.2549 94.1493 78.6084 92.8613 80.2619 92.8613H138.163C139.816 92.8613 141.17 94.1493 141.17 95.7248C141.17 97.2982 139.816 98.5862 138.163 98.5862Z" fill="#131313"/>
<path fill-rule="evenodd" clip-rule="evenodd" d="M138.163 115.76H80.2619C78.6084 115.76 77.2549 114.473 77.2549 112.899C77.2549 111.326 78.6084 110.036 80.2619 110.036H138.163C139.816 110.036 141.17 111.326 141.17 112.899C141.17 114.473 139.816 115.76 138.163 115.76Z" fill="#131313"/>
<path fill-rule="evenodd" clip-rule="evenodd" d="M138.163 132.935H80.2619C78.6084 132.935 77.2549 131.647 77.2549 130.074C77.2549 128.498 78.6084 127.21 80.2619 127.21H138.163C139.816 127.21 141.17 128.498 141.17 130.074C141.17 131.647 139.816 132.935 138.163 132.935Z" fill="#131313"/>
<path fill-rule="evenodd" clip-rule="evenodd" d="M110.485 150.11H80.2748C78.6142 150.11 77.2549 148.822 77.2549 147.248C77.2549 145.673 78.6142 144.385 80.2748 144.385H110.485C112.146 144.385 113.505 145.673 113.505 147.248C113.505 148.822 112.146 150.11 110.485 150.11Z" fill="#131313"/>
<path fill-rule="evenodd" clip-rule="evenodd" d="M171.463 127.914C159.885 139.492 141.962 140.798 128.949 131.859C127.286 130.696 125.703 129.39 124.227 127.914C123.467 127.156 122.751 126.374 122.076 125.551C120.726 123.908 119.544 122.155 118.575 120.344C116.869 117.285 115.708 114.039 115.075 110.684C113.03 100.162 116.087 88.836 124.227 80.698C132.387 72.5358 143.712 69.4987 154.234 71.5234C157.586 72.1765 160.835 73.337 163.894 75.0243C165.707 76.0148 167.436 77.1972 169.082 78.547C169.902 79.2195 170.684 79.9381 171.441 80.698C172.92 82.1741 174.245 83.7546 175.387 85.4201C184.328 98.4306 183.019 116.357 171.463 127.914Z" fill="white" fill-opacity="0.1"/>
<path fill-rule="evenodd" clip-rule="evenodd" d="M168.223 125.633C156.178 137.683 136.658 137.68 124.611 125.633C112.579 113.599 112.579 94.0727 124.626 82.0252C136.658 69.9912 156.178 69.9912 168.21 82.0252C180.255 94.0727 180.255 113.599 168.223 125.633ZM174.405 75.8353C158.944 60.3713 133.89 60.3713 118.429 75.8353C102.97 91.2971 102.957 116.372 118.415 131.836C132.487 145.905 154.542 147.174 170.055 135.622C171.57 134.492 173.029 133.226 174.421 131.836C175.81 130.444 177.077 128.984 178.204 127.469C189.754 111.951 188.474 89.9072 174.405 75.8353Z" fill="#383838"/>
<path fill-rule="evenodd" clip-rule="evenodd" d="M235.251 190.128L234.602 190.777C230.307 195.075 223.275 195.075 218.979 190.777L179.328 151.119L195.6 134.844L235.251 174.502C239.547 178.8 239.547 185.831 235.251 190.128Z" fill="url(#paint0_linear_2085_14831)"/>
<path fill-rule="evenodd" clip-rule="evenodd" d="M179.059 126.256L190.776 137.976L182.458 146.293L170.743 134.574C172.289 133.421 173.776 132.129 175.198 130.71C176.617 129.292 177.909 127.803 179.059 126.256Z" fill="#505050"/>
<path fill-rule="evenodd" clip-rule="evenodd" d="M234.658 174.014L218.49 190.183L215.579 187.27L231.745 171.101L234.658 174.014Z" fill="#505050"/>
<path fill-rule="evenodd" clip-rule="evenodd" d="M196.5 135.404L179.889 152.018L177.421 149.55L194.032 132.936L196.5 135.404Z" fill="#505050"/>
<path fill-rule="evenodd" clip-rule="evenodd" d="M160.249 77.8802L119.512 118.623C117.978 115.873 116.935 112.955 116.367 109.939L151.566 74.7329C154.579 75.3222 157.499 76.3633 160.249 77.8802Z" fill="white" fill-opacity="0.5"/>
<path fill-rule="evenodd" clip-rule="evenodd" d="M173.604 87.5643L129.563 129.118C127.986 128.08 126.485 126.911 125.085 125.59C124.364 124.91 123.683 124.213 123.045 123.476L167.623 81.4116C168.403 82.0156 169.145 82.6587 169.863 83.3387C171.263 84.6596 172.522 86.0739 173.604 87.5643Z" fill="white" fill-opacity="0.5"/>
<defs>
<linearGradient id="paint0_linear_2085_14831" x1="208.901" y1="105.266" x2="149.744" y2="164.411" gradientUnits="userSpaceOnUse">
<stop stop-color="#D2C13D"/>
<stop offset="1" stop-color="#FCE849"/>
</linearGradient>
</defs>
</svg>
