<svg width="88" height="88" viewBox="0 0 88 88" fill="none" xmlns="http://www.w3.org/2000/svg">
<rect width="88" height="88" rx="44" fill="#FCE849" fill-opacity="0.12"/>
<rect x="16" y="16" width="56" height="56" rx="28" fill="#FCE849"/>
<path d="M54.8105 40.523L42.773 52.5605C42.4918 52.8416 42.1104 52.9995 41.7127 52.9995C41.3151 52.9995 40.9337 52.8416 40.6524 52.5605L33.938 45.8105C33.6572 45.5293 33.4995 45.1481 33.4995 44.7507C33.4995 44.3532 33.6572 43.972 33.938 43.6908L35.813 41.8158C36.0942 41.5359 36.4747 41.3787 36.8715 41.3787C37.2682 41.3787 37.6488 41.5359 37.9299 41.8158L41.7502 45.5208L50.8215 36.5611C51.1026 36.2809 51.4834 36.1235 51.8804 36.1235C52.2773 36.1235 52.6581 36.2809 52.9393 36.5611L54.8096 38.393C54.9503 38.5324 55.0619 38.6982 55.1381 38.881C55.2144 39.0637 55.2537 39.2598 55.2538 39.4578C55.2539 39.6558 55.2147 39.8519 55.1387 40.0347C55.0626 40.2175 54.9511 40.3835 54.8105 40.523Z" fill="#131313"/>
</svg>
