<svg width="20" height="21" viewBox="0 0 20 21" fill="none" xmlns="http://www.w3.org/2000/svg">
<path d="M9.99998 11.125C7.35831 11.125 5.20831 8.97496 5.20831 6.33329C5.20831 3.69163 7.35831 1.54163 9.99998 1.54163C12.6416 1.54163 14.7916 3.69163 14.7916 6.33329C14.7916 8.97496 12.6416 11.125 9.99998 11.125ZM9.99998 2.79163C8.04998 2.79163 6.45831 4.38329 6.45831 6.33329C6.45831 8.28329 8.04998 9.87496 9.99998 9.87496C11.95 9.87496 13.5416 8.28329 13.5416 6.33329C13.5416 4.38329 11.95 2.79163 9.99998 2.79163Z" fill="#A9A9A9"/>
<path d="M17.1585 19.4583C16.8168 19.4583 16.5335 19.175 16.5335 18.8333C16.5335 15.9583 13.6001 13.625 10.0001 13.625C6.40013 13.625 3.4668 15.9583 3.4668 18.8333C3.4668 19.175 3.18346 19.4583 2.8418 19.4583C2.50013 19.4583 2.2168 19.175 2.2168 18.8333C2.2168 15.275 5.70846 12.375 10.0001 12.375C14.2918 12.375 17.7835 15.275 17.7835 18.8333C17.7835 19.175 17.5001 19.4583 17.1585 19.4583Z" fill="#A9A9A9"/>
</svg>
