<svg width="32" height="33" viewBox="0 0 32 33" fill="none" xmlns="http://www.w3.org/2000/svg">
<path d="M27.5854 12.3267L29.3334 20.6721H27.3307C27.2507 20.3227 27.1881 19.9574 27.1081 19.6081C27.0281 19.2587 27.1081 19.4334 26.9014 19.4334H24.4707C24.4446 19.4289 24.4177 19.4299 24.392 19.4363C24.3662 19.4427 24.342 19.4545 24.3211 19.4708C24.3001 19.4871 24.2828 19.5077 24.2702 19.5311C24.2576 19.5545 24.2501 19.5803 24.2481 19.6067C24.1361 19.9267 24.0254 20.2441 23.8987 20.5454C23.7707 20.8468 23.7867 20.6881 23.7387 20.6881H21.5947V20.4974C22.6543 17.9863 23.7134 15.4703 24.7721 12.9494C24.8345 12.7782 24.9465 12.6293 25.0936 12.5218C25.2408 12.4143 25.4166 12.3529 25.5987 12.3454C26.2974 12.3134 26.9334 12.3294 27.5854 12.3294M26.0921 14.6667L24.9627 17.7028H26.7427L26.0921 14.6667ZM8.14941 18.0014V17.8107C8.78541 16.0467 9.43608 14.2827 10.0561 12.5187C10.0561 12.3761 10.1841 12.3121 10.3427 12.3121H12.4561V12.5187L9.16675 20.4654C9.15112 20.5313 9.11137 20.5889 9.05534 20.6269C8.99931 20.6649 8.93107 20.6806 8.86408 20.6707H7.02141C6.86141 20.6707 6.79875 20.6707 6.75075 20.4641C6.16408 18.1761 5.55875 15.8881 4.97075 13.5841C4.9421 13.4651 4.86789 13.3622 4.76408 13.2974C4.15086 12.9552 3.50097 12.6832 2.82675 12.4867C2.82675 12.4867 2.71475 12.4067 2.66675 12.3761C2.73445 12.358 2.80572 12.358 2.87341 12.3761H6.05208C6.18485 12.3559 6.32038 12.364 6.4498 12.3998C6.57922 12.4356 6.69962 12.4984 6.80309 12.584C6.90656 12.6696 6.99079 12.7761 7.05024 12.8965C7.10969 13.0169 7.14303 13.1486 7.14808 13.2827L8.05475 17.9374C8.0495 17.9746 8.0495 18.0123 8.05475 18.0494L8.14941 18.0014ZM15.5547 20.3534L15.8734 18.4934L16.0961 18.6214C16.9077 19.0408 17.8384 19.1697 18.7334 18.9867C18.9045 18.9721 19.0668 18.9045 19.1977 18.7934C19.3287 18.6823 19.4218 18.5332 19.4641 18.3667C19.4812 18.2007 19.444 18.0335 19.3582 17.8903C19.2724 17.747 19.1426 17.6354 18.9881 17.5721C18.6694 17.3654 18.3214 17.2067 18.0187 17.0001C17.6267 16.7817 17.2639 16.5147 16.9387 16.2054C16.609 15.8109 16.4283 15.313 16.4283 14.7987C16.4283 14.2845 16.609 13.7866 16.9387 13.3921C17.4173 12.8694 18.043 12.504 18.7334 12.3441C19.7853 12.0805 20.8917 12.1358 21.9121 12.5027H21.9921L21.6894 14.2187C21.2883 14.0962 20.8794 14.0009 20.4654 13.9334C20.0527 13.9013 19.6381 13.9013 19.2254 13.9334C19.0765 13.9633 18.9391 14.035 18.8294 14.1401C18.7765 14.1851 18.7341 14.2411 18.705 14.3042C18.6758 14.3673 18.6608 14.4359 18.6608 14.5054C18.6608 14.5749 18.6758 14.6435 18.705 14.7066C18.7341 14.7697 18.7765 14.8257 18.8294 14.8707C19.0196 15.0459 19.2259 15.1996 19.4481 15.3321C19.8614 15.5854 20.2907 15.7921 20.6881 16.0627C21.0168 16.2637 21.2894 16.5444 21.4805 16.8789C21.6717 17.2133 21.7753 17.5906 21.7817 17.9758C21.7881 18.361 21.6971 18.7416 21.5171 19.0822C21.3371 19.4228 21.0739 19.7124 20.7521 19.9241C20.1186 20.415 19.3571 20.7131 18.5587 20.7827C17.5373 20.8935 16.5043 20.7459 15.5547 20.3534ZM12.0267 20.6707L13.3934 12.3281H15.5707L14.2041 20.6707H12.0267Z" fill="#0742A6"/>
</svg>
